<svg width="134" height="30" viewBox="0 0 134 30" fill="none" xmlns="http://www.w3.org/2000/svg">
<path d="M14.8698 15.0625V23.4837H10.2766V1.25269H19.8397C22.3997 1.25269 24.3084 1.88969 25.566 3.16369C26.8235 4.43769 27.4523 6.10893 27.4523 8.1774C27.4523 10.2235 26.8072 11.8826 25.517 13.1545C24.2268 14.4265 22.3344 15.0625 19.8397 15.0625H14.8698ZM14.8698 10.8656H19.8397C20.8472 10.8656 21.6005 10.6279 22.1057 10.1463C22.3621 9.8884 22.5615 9.58005 22.6912 9.24101C22.8209 8.90197 22.8781 8.5397 22.859 8.1774C22.8775 7.81195 22.8202 7.44663 22.6906 7.10421C22.561 6.76179 22.3619 6.44961 22.1057 6.18716C21.6005 5.6995 20.8472 5.45262 19.8397 5.45262H14.8698V10.8656Z" fill="#1C1D1F"/>
<path d="M39.5631 16.4066V7.07715H44.0308V23.4837H39.9091V21.4813C39.0517 23.0662 37.4369 23.8586 35.0648 23.8586C33.1356 23.8586 31.6525 23.2694 30.6155 22.0909C29.5784 20.9124 29.0589 19.3224 29.0568 17.321V7.07715H33.5245V16.8303C33.5245 18.9821 34.437 20.0569 36.2621 20.0549C37.3522 20.0549 38.1749 19.742 38.7302 19.1162C39.2875 18.4761 39.5631 17.577 39.5631 16.4066Z" fill="#1C1D1F"/>
<path d="M51.6126 7.07717V9.0918C52.4741 7.50488 54.1073 6.71143 56.5121 6.71143C58.4617 6.71143 59.9611 7.30068 61.0104 8.47918C62.0597 9.65768 62.5833 11.2497 62.5813 13.2552V23.4838H58.1258V13.7459C58.1258 11.5981 57.1919 10.5233 55.324 10.5212C54.2553 10.5212 53.4254 10.8413 52.8406 11.4752C52.2557 12.1092 51.9587 12.9991 51.9587 14.0903V23.4838H47.491V7.07717H51.6126Z" fill="#1C1D1F"/>
<path d="M67.1991 21.4021C65.6374 19.7644 64.8565 17.7244 64.8565 15.282C64.8565 12.8397 65.6374 10.7986 67.1991 9.15889C67.9571 8.35537 68.8777 7.72096 69.9001 7.29751C70.9225 6.87407 72.0235 6.67121 73.1305 6.70233C75.4802 6.70233 77.3307 7.35965 78.6821 8.67429C80.0336 9.98893 80.8042 11.461 80.9941 13.0906H76.4008C76.2368 12.3856 75.8239 11.7626 75.2372 11.3351C74.6202 10.8733 73.8655 10.6308 73.0937 10.6462C72.5663 10.6254 72.0415 10.7295 71.5624 10.9499C71.0832 11.1703 70.6635 11.5008 70.3378 11.9142C69.6641 12.7615 69.3283 13.8841 69.3303 15.282C69.3324 16.68 69.6682 17.7975 70.3378 18.6347C70.6635 19.048 71.0832 19.3785 71.5624 19.5989C72.0415 19.8193 72.5663 19.9234 73.0937 19.9026C73.8657 19.9195 74.6209 19.6768 75.2372 19.2138C75.8237 18.7874 76.2366 18.1654 76.4008 17.4612H80.9941C80.8042 19.0868 80.0336 20.5579 78.6821 21.8745C77.3307 23.1912 75.4802 23.8485 73.1305 23.8465C72.0243 23.8799 70.9236 23.6793 69.9012 23.258C68.8787 22.8366 67.9577 22.204 67.1991 21.4021Z" fill="#1C1D1F"/>
<path d="M87.6328 0V8.5797C88.5759 7.32805 90.0958 6.70222 92.1923 6.70222C94.144 6.70222 95.6434 7.29148 96.6907 8.46998C97.7379 9.64848 98.2626 11.2405 98.2646 13.246V23.4837H93.7969V13.7458C93.7969 11.5981 92.864 10.5232 90.9981 10.5212C89.9263 10.5212 89.0996 10.8412 88.5116 11.4752C87.9237 12.1091 87.6328 12.9991 87.6328 14.1237V23.4837H83.1651V0.015239L87.6328 0Z" fill="#1C1D1F"/>
<path d="M116.919 16.565H104.977C105.05 17.552 105.496 18.4751 106.223 19.1496C106.994 19.7728 107.969 20.0908 108.961 20.0426C109.634 20.0526 110.299 19.8966 110.896 19.5885C111.454 19.3048 111.893 18.8342 112.136 18.2596H116.635C116.178 19.894 115.174 21.3242 113.79 22.3133C112.352 23.3528 110.612 23.8964 108.835 23.8616C106.4 23.8616 104.407 23.0579 102.858 21.4507C101.308 19.8435 100.532 17.776 100.528 15.2483C100.528 12.8101 101.304 10.7782 102.858 9.15264C104.411 7.52712 106.393 6.71436 108.802 6.71436C111.215 6.71436 113.181 7.52712 114.702 9.15264C116.223 10.7782 116.981 12.8101 116.974 15.2483L116.919 16.565ZM108.771 10.2712C107.868 10.2363 106.984 10.5312 106.284 11.1002C105.618 11.6871 105.176 12.4848 105.032 13.3587H112.519C112.388 12.4875 111.955 11.6896 111.294 11.1033C110.587 10.5222 109.687 10.2254 108.771 10.2712Z" fill="#1C1D1F"/>
<path d="M120.38 29.9635L123.05 23.1485L116.635 7.07714H121.387L125.089 17.9305L129.346 7.07104H134L124.783 30L120.38 29.9635Z" fill="#1C1D1F"/>
<path d="M3.11726 1.94463C3.55063 1.94583 3.97392 2.07484 4.33367 2.31537C4.69342 2.55589 4.97349 2.89713 5.13849 3.29599C5.3035 3.69485 5.34605 4.13344 5.26076 4.55635C5.17547 4.97927 4.96617 5.36754 4.6593 5.67212C4.35243 5.97671 3.96176 6.18395 3.53662 6.26766C3.11148 6.35137 2.67096 6.3078 2.27069 6.14245C1.87042 5.9771 1.52836 5.69739 1.28771 5.33865C1.04706 4.97992 0.918629 4.55824 0.918628 4.12689C0.919438 3.54837 1.15069 2.99377 1.56169 2.58469C1.97269 2.17561 2.52989 1.94544 3.11113 1.94463M3.11113 1.03027C2.49607 1.03148 1.89516 1.21412 1.38434 1.55511C0.873521 1.8961 0.47571 2.38015 0.241173 2.94608C0.00663625 3.51202 -0.0541018 4.13446 0.0666334 4.73474C0.187369 5.33502 0.484159 5.88621 0.919504 6.31867C1.35485 6.75113 1.90921 7.04545 2.51255 7.16444C3.11589 7.28343 3.74112 7.22176 4.30925 6.9872C4.87738 6.75265 5.36292 6.35575 5.70451 5.84664C6.04609 5.33754 6.22841 4.73908 6.22841 4.12689C6.22841 3.30562 5.90063 2.51798 5.31717 1.93725C4.73372 1.35652 3.94239 1.03027 3.11726 1.03027H3.11113Z" fill="#1C1D1F"/>
<path d="M3.11728 10.073C3.55139 10.0736 3.97558 10.2023 4.33623 10.4428C4.69689 10.6833 4.97782 11.0248 5.14353 11.4242C5.30924 11.8235 5.35228 12.2628 5.26722 12.6866C5.18216 13.1103 4.97281 13.4994 4.66563 13.8047C4.35846 14.11 3.96724 14.3178 3.54142 14.4019C3.11561 14.486 2.67431 14.4425 2.2733 14.277C1.87229 14.1115 1.52957 13.8314 1.28846 13.4721C1.04734 13.1128 0.918649 12.6904 0.918649 12.2584C0.918648 11.6793 1.14955 11.1239 1.56063 10.7142C1.97172 10.3044 2.52938 10.0739 3.11115 10.073M3.11115 9.15869C2.49535 9.15929 1.89355 9.3416 1.38182 9.68256C0.870097 10.0235 0.471417 10.5078 0.236179 11.0743C0.000940884 11.6407 -0.0602943 12.2639 0.060214 12.8649C0.180722 13.466 0.477564 14.018 0.913216 14.4512C1.34887 14.8844 1.90377 15.1793 2.50779 15.2987C3.1118 15.418 3.73781 15.3565 4.30668 15.1218C4.87555 14.8871 5.36174 14.4898 5.7038 13.9801C6.04586 13.4704 6.22843 12.8713 6.22843 12.2584C6.22883 11.8514 6.14866 11.4484 5.99249 11.0724C5.83632 10.6963 5.60721 10.3546 5.31828 10.0667C5.02934 9.77888 4.68623 9.55051 4.30857 9.3947C3.93091 9.23889 3.5261 9.15869 3.11728 9.15869H3.11115Z" fill="#1C1D1F"/>
<path d="M3.11726 23.6149C4.8355 23.6149 6.22841 22.2285 6.22841 20.5182C6.22841 18.808 4.8355 17.4216 3.11726 17.4216C1.39901 17.4216 0.00610352 18.808 0.00610352 20.5182C0.00610352 22.2285 1.39901 23.6149 3.11726 23.6149Z" fill="#1C1D1F"/>
</svg>
