<svg width="100" height="100" viewBox="0 0 100 100" fill="none" xmlns="http://www.w3.org/2000/svg">
<g clip-path="url(#clip0_279_2277)">
<rect width="100" height="100" rx="15.7" fill="white"/>
<g filter="url(#filter0_f_279_2277)">
<ellipse cx="35.3127" cy="10.9241" rx="40.7918" ry="35.0996" fill="#E3F0FB"/>
</g>
<g filter="url(#filter1_f_279_2277)">
<ellipse cx="117.027" cy="53.0838" rx="28.8135" ry="24.7928" fill="#E3F0FB"/>
</g>
<g filter="url(#filter2_f_279_2277)">
<ellipse cx="21.1865" cy="97.0291" rx="28.8135" ry="24.7928" fill="#E3F0FB"/>
</g>
<path d="M50.0183 52.3733V73.439H38.5529V17.8281H62.424C68.8141 17.8281 73.5786 19.4215 76.7176 22.6084C79.8566 25.7954 81.4261 29.976 81.4261 35.1502C81.4261 40.2686 79.8158 44.4187 76.5953 47.6006C73.3748 50.7824 68.651 52.3733 62.424 52.3733H50.0183ZM50.0183 41.8748H62.424C64.9387 41.8748 66.8191 41.2801 68.0803 40.0755C68.7202 39.4303 69.2179 38.659 69.5417 37.8109C69.8655 36.9627 70.0082 36.0565 69.9606 35.1502C70.0068 34.2361 69.8637 33.3222 69.5402 32.4656C69.2167 31.6091 68.7197 30.8282 68.0803 30.1716C66.8191 28.9518 64.9387 28.3342 62.424 28.3342H50.0183V41.8748Z" fill="#1C1D1F"/>
<path d="M20.6816 19.559C21.7634 19.562 22.82 19.8847 23.718 20.4864C24.616 21.0881 25.3151 21.9417 25.727 22.9394C26.1388 23.9372 26.245 25.0343 26.0321 26.0922C25.8192 27.1501 25.2968 28.1214 24.5308 28.8833C23.7648 29.6452 22.7896 30.1636 21.7284 30.373C20.6672 30.5824 19.5676 30.4734 18.5684 30.0598C17.5693 29.6462 16.7154 28.9465 16.1148 28.0491C15.5141 27.1518 15.1935 26.0969 15.1935 25.0179C15.1955 23.5707 15.7727 22.1834 16.7987 21.1601C17.8246 20.1368 19.2154 19.561 20.6663 19.559M20.6663 17.2717C19.131 17.2747 17.6311 17.7316 16.356 18.5846C15.0809 19.4376 14.0879 20.6484 13.5024 22.0641C12.917 23.4798 12.7654 25.0368 13.0667 26.5384C13.3681 28.0401 14.109 29.4189 15.1956 30.5007C16.2823 31.5825 17.6661 32.3187 19.1722 32.6164C20.6782 32.914 22.2389 32.7597 23.657 32.173C25.0752 31.5863 26.2872 30.5934 27.1398 29.3199C27.9925 28.0464 28.4476 26.5493 28.4476 25.0179C28.4476 22.9635 27.6294 20.9932 26.173 19.5405C24.7166 18.0878 22.7413 17.2717 20.6816 17.2717H20.6663Z" fill="#1C1D1F"/>
<path d="M20.6816 39.8925C21.7652 39.8941 22.8241 40.2159 23.7243 40.8175C24.6246 41.4191 25.3259 42.2734 25.7395 43.2724C26.1531 44.2714 26.2606 45.3703 26.0482 46.4302C25.8359 47.4901 25.3134 48.4635 24.5466 49.2272C23.7798 49.991 22.8033 50.5108 21.7404 50.7212C20.6775 50.9315 19.5759 50.8228 18.5749 50.4088C17.5739 49.9948 16.7185 49.2942 16.1166 48.3954C15.5147 47.4966 15.1935 46.4399 15.1935 45.3591C15.1935 43.9106 15.7698 42.5213 16.796 41.4964C17.8221 40.4714 19.2142 39.8946 20.6663 39.8925M20.6663 37.6053C19.1292 37.6068 17.627 38.0628 16.3497 38.9157C15.0723 39.7687 14.0771 40.9802 13.4899 42.3971C12.9027 43.8141 12.7499 45.3729 13.0507 46.8765C13.3515 48.38 14.0925 49.7609 15.1799 50.8446C16.2674 51.9282 17.6525 52.6659 19.1602 52.9645C20.668 53.263 22.2306 53.109 23.6506 52.5219C25.0706 51.9349 26.2842 50.941 27.138 49.6661C27.9919 48.3911 28.4476 46.8923 28.4476 45.3591C28.4486 44.3412 28.2485 43.3331 27.8586 42.3924C27.4688 41.4517 26.8969 40.5969 26.1757 39.8768C25.4545 39.1567 24.598 38.5854 23.6553 38.1957C22.7126 37.8059 21.7021 37.6053 20.6816 37.6053H20.6663Z" fill="#1C1D1F"/>
<path d="M20.6816 73.7669C24.9706 73.7669 28.4476 70.2988 28.4476 66.0207C28.4476 61.7426 24.9706 58.2745 20.6816 58.2745C16.3926 58.2745 12.9156 61.7426 12.9156 66.0207C12.9156 70.2988 16.3926 73.7669 20.6816 73.7669Z" fill="#1C1D1F"/>
<path d="M56.7651 84.6228C60.1432 75.9895 68.5884 59.8502 74.2186 59.8502C79.2857 59.8502 64.6473 83.4967 70.2775 83.4967C74.2186 83.4967 77.0336 71.6735 79.8487 71.6735C82.6638 71.6735 78.7227 81.8077 80.9747 81.8077C83.7898 81.8077 85.4788 77.3036 85.4788 77.3036" stroke="#1C1D1F" stroke-width="2.3" stroke-linecap="round" stroke-linejoin="round"/>
</g>
<defs>
<filter id="filter0_f_279_2277" x="-35.4791" y="-54.1754" width="141.584" height="130.199" filterUnits="userSpaceOnUse" color-interpolation-filters="sRGB">
<feFlood flood-opacity="0" result="BackgroundImageFix"/>
<feBlend mode="normal" in="SourceGraphic" in2="BackgroundImageFix" result="shape"/>
<feGaussianBlur stdDeviation="15" result="effect1_foregroundBlur_279_2277"/>
</filter>
<filter id="filter1_f_279_2277" x="58.2135" y="-1.70898" width="117.627" height="109.586" filterUnits="userSpaceOnUse" color-interpolation-filters="sRGB">
<feFlood flood-opacity="0" result="BackgroundImageFix"/>
<feBlend mode="normal" in="SourceGraphic" in2="BackgroundImageFix" result="shape"/>
<feGaussianBlur stdDeviation="15" result="effect1_foregroundBlur_279_2277"/>
</filter>
<filter id="filter2_f_279_2277" x="-37.627" y="42.2363" width="117.627" height="109.586" filterUnits="userSpaceOnUse" color-interpolation-filters="sRGB">
<feFlood flood-opacity="0" result="BackgroundImageFix"/>
<feBlend mode="normal" in="SourceGraphic" in2="BackgroundImageFix" result="shape"/>
<feGaussianBlur stdDeviation="15" result="effect1_foregroundBlur_279_2277"/>
</filter>
<clipPath id="clip0_279_2277">
<rect width="100" height="100" rx="15.7" fill="white"/>
</clipPath>
</defs>
</svg>
