<svg width="5" height="7" viewBox="0 0 5 7" fill="none" xmlns="http://www.w3.org/2000/svg">
<path d="M3.69992 2.44001L1.40492 0.145007C1.31124 0.0518817 1.18451 -0.000389099 1.05242 -0.000389099C0.920323 -0.000389099 0.793598 0.0518817 0.699916 0.145007C0.653052 0.191489 0.615855 0.246789 0.590471 0.307719C0.565086 0.368648 0.552017 0.434001 0.552017 0.500007C0.552017 0.566013 0.565086 0.631366 0.590471 0.692296C0.615855 0.753225 0.653052 0.808526 0.699916 0.855007L2.99992 3.14501C3.04678 3.19149 3.08398 3.24679 3.10936 3.30772C3.13475 3.36865 3.14782 3.434 3.14782 3.50001C3.14782 3.56601 3.13475 3.63137 3.10936 3.6923C3.08398 3.75323 3.04678 3.80853 2.99992 3.85501L0.699916 6.14501C0.605765 6.2385 0.552607 6.36556 0.552138 6.49824C0.551669 6.63092 0.603928 6.75836 0.697417 6.85251C0.790906 6.94666 0.917967 6.99982 1.05065 7.00029C1.18333 7.00076 1.31077 6.9485 1.40492 6.85501L3.69992 4.56001C3.98082 4.27876 4.1386 3.89751 4.1386 3.50001C4.1386 3.10251 3.98082 2.72126 3.69992 2.44001Z" fill="#FF7C4D"/>
</svg>
