<svg width="1436" height="456" viewBox="0 0 1436 456" fill="none" xmlns="http://www.w3.org/2000/svg">
<path d="M1411.41 4.79002L1400.27 1.47205M1411.41 4.79002H1378.39M1411.41 4.79002L1422.93 8.21758M1411.41 4.79002H1434.8M1400.27 1.47205L1404.33 1.47334L1408.34 1.48052L1412.27 1.50072L1416.07 1.54051L1419.71 1.60507L1423.15 1.70224L1426.34 1.83723L1429.31 2.00938L1431.85 2.24741L1434.16 2.52326L1434.8 2.61988V4.79002M1400.27 1.47205H1367.78M1367.78 1.47205H1335.29M1367.78 1.47205L1378.39 4.79002M1335.29 1.47205H1302.8M1335.29 1.47205L1345.37 4.79002M1302.8 1.47205H1270.32M1302.8 1.47205L1312.36 4.79002M1270.32 1.47205H1237.83M1270.32 1.47205L1279.34 4.79002M1237.83 1.47205H1205.34M1237.83 1.47205L1246.32 4.79002M1205.34 1.47205H1172.85M1205.34 1.47205L1213.3 4.79002M1172.85 1.47205H1140.36M1172.85 1.47205L1180.28 4.79002M1140.36 1.47205H1107.87M1140.36 1.47205L1147.26 4.79002M1107.87 1.47205H1075.38M1107.87 1.47205L1114.24 4.79002M1075.38 1.47205H1042.89M1075.38 1.47205L1081.22 4.79002M1042.89 1.47205H1010.4M1042.89 1.47205L1048.2 4.79002M1010.4 1.47205H977.913M1010.4 1.47205L1011.58 2.29175L1013.37 3.53275L1015.18 4.79002M977.913 1.47205H945.424M977.913 1.47205L978.961 2.29175L982.158 4.79002M945.424 1.47205H912.935M945.424 1.47205L949.138 4.79002M912.935 1.47205H880.446M912.935 1.47205L914.116 2.70389L915.313 3.9501L915.715 4.36941L916.119 4.79002M880.446 1.47205H847.957M880.446 1.47205L881.43 2.70389L881.762 3.11733L882.094 3.53275L883.099 4.79002M847.957 1.47205H815.468M847.957 1.47205L850.079 4.79002M815.468 1.47205L815.664 1.88091L815.86 2.29175L816.857 4.36941L817.059 4.79002M815.468 1.47205H782.979M782.979 1.47205H750.489M782.979 1.47205L784.04 4.79002M750.489 1.47205H718M750.489 1.47205L750.686 2.70389L751.02 4.79002M718 1.47205H685.511M718 1.47205V4.79002M685.511 1.47205H653.021M685.511 1.47205L685.314 2.70389L684.98 4.79002M653.021 1.47205H620.532M653.021 1.47205L651.96 4.79002M620.532 1.47205L620.336 1.88091L620.14 2.29175L619.143 4.36941L618.941 4.79002M620.532 1.47205H588.044M588.044 1.47205H555.554M588.044 1.47205L586.19 4.36941L585.921 4.79002M555.554 1.47205H523.065M555.554 1.47205L554.57 2.70389L554.238 3.11733L553.572 3.9501L553.238 4.36941L552.901 4.79002M523.065 1.47205H490.576M523.065 1.47205L521.884 2.70389L520.687 3.9501L520.285 4.36941L519.881 4.79002M490.576 1.47205H458.087M490.576 1.47205L486.862 4.79002M458.087 1.47205H425.597M458.087 1.47205L457.039 2.29175L453.842 4.79002M425.597 1.47205H393.108M425.597 1.47205L420.822 4.79002M393.108 1.47205H360.62M393.108 1.47205L387.803 4.79002M360.62 1.47205H328.13M360.62 1.47205L354.783 4.79002M328.13 1.47205H295.641M328.13 1.47205L321.763 4.79002M295.641 1.47205H263.152M295.641 1.47205L288.743 4.79002M263.152 1.47205H230.663M263.152 1.47205L255.723 4.79002M230.663 1.47205H198.173M230.663 1.47205L222.704 4.79002M198.173 1.47205H165.684M198.173 1.47205L189.684 4.79002M165.684 1.47205H133.195M165.684 1.47205L156.664 4.79002M133.195 1.47205H100.706M133.195 1.47205L123.644 4.79002M100.706 1.47205H68.2169M100.706 1.47205L90.6251 4.79002M68.2169 1.47205H35.7279M68.2169 1.47205L57.6053 4.79002M35.7279 1.47205L31.6735 1.47334L27.661 1.48052L23.732 1.50072L19.9262 1.54051L16.2855 1.60507L12.8486 1.70224L9.6566 1.83723L6.69382 2.00938L4.15143 2.24741L1.83676 2.52326L1.20061 2.6199V4.79002M35.7279 1.47205L24.5854 4.79002M90.6251 4.79002H123.644M90.6251 4.79002H57.6053M90.6251 4.79002L80.2083 8.21758M123.644 4.79002L113.776 8.21758M123.644 4.79002H156.664M222.704 4.79002H255.723M222.704 4.79002H189.684M222.704 4.79002L220.673 5.63648L214.481 8.21758M255.723 4.79002L248.048 8.21758M255.723 4.79002H288.743M354.783 4.79002H387.803M354.783 4.79002H321.763M354.783 4.79002L353.294 5.63648L352.544 6.06167L348.752 8.21758M387.803 4.79002L387.127 5.21195L386.449 5.63648L382.321 8.21758M387.803 4.79002H420.822M486.862 4.79002L486.389 5.21195L483.024 8.21758M486.862 4.79002H519.881M486.862 4.79002H453.842M519.881 4.79002L519.07 5.63648L518.66 6.06167L518.25 6.48946L516.592 8.21758M519.881 4.79002H552.901M618.941 4.79002H651.96M618.941 4.79002H585.921M618.941 4.79002L617.296 8.21758M651.96 4.79002L651.825 5.21195L651.69 5.63648L651.553 6.06167L651.141 7.34961L650.864 8.21758M651.96 4.79002H684.98M751.02 4.79002H784.04M751.02 4.79002H718M751.02 4.79002L751.568 8.21758M784.04 4.79002L784.175 5.21195L784.31 5.63648L784.447 6.06167L785.136 8.21758M784.04 4.79002H817.059M883.099 4.79002H916.119M883.099 4.79002H850.079M883.099 4.79002L883.776 5.63648L885.146 7.34961L885.492 7.78262L885.84 8.21758M916.119 4.79002L916.931 5.63648L917.34 6.06167L917.75 6.48946L919.408 8.21758M916.119 4.79002H949.138M1015.18 4.79002H1048.2M1015.18 4.79002H982.158M1015.18 4.79002L1016.4 5.63648L1017.01 6.06167L1020.11 8.21758M1048.2 4.79002L1048.87 5.21195L1049.55 5.63648L1053.68 8.21758M1048.2 4.79002H1081.22M1147.26 4.79002H1180.28M1147.26 4.79002H1114.24M1147.26 4.79002L1149.02 5.63648L1149.9 6.06167L1154.38 8.21758M1180.28 4.79002L1187.95 8.21758M1180.28 4.79002H1213.3M1279.34 4.79002H1312.36M1279.34 4.79002H1246.32M1279.34 4.79002L1288.66 8.21758M1312.36 4.79002L1322.22 8.21758M1312.36 4.79002H1345.37M1.08487 35.8179H1.20061M34.3197 35.8179L46.9264 31.4389M34.3197 35.8179L21.2299 40.3645M34.3197 35.8179H72.3019M34.3197 35.8179H1.20061M46.9264 31.4389H9.64465M46.9264 31.4389L59.0769 27.2184M46.9264 31.4389H84.2082M9.64465 31.4389L22.4701 27.2184M9.64465 31.4389H1.20061M9.64465 31.4389L1.20061 34.217M46.7756 19.2195H82.1034M46.7756 19.2195L58.3026 15.4261M46.7756 19.2195H11.4486M46.7756 19.2195L34.8387 23.1479M82.1034 19.2195L93.0241 15.4261M82.1034 19.2195L70.7951 23.1479M82.1034 19.2195H117.431M58.3026 15.4261H93.0241M58.3026 15.4261L69.4407 11.7612M58.3026 15.4261H23.5819M93.0241 15.4261H127.745M93.0241 15.4261L103.575 11.7612M0.83698 104.936H1.20061M31.4846 104.936L47.741 97.6761M31.4846 104.936L14.4203 112.558M31.4846 104.936H80.5219M31.4846 104.936H1.20061M47.741 97.6761L63.2456 90.7519M47.741 97.6761H95.6165M47.741 97.6761H1.20061M16.4774 90.7519H63.2456M16.4774 90.7519L32.3381 84.1407M16.4774 90.7519H1.20061M16.4774 90.7519L1.20061 97.1196M47.4969 77.8217H92.1968M47.4969 77.8217L62.0001 71.7765M47.4969 77.8217H2.79698M47.4969 77.8217L32.3381 84.1407M92.1968 77.8217L105.734 71.7765M92.1968 77.8217L78.0482 84.1407M92.1968 77.8217H136.897M62.0001 71.7765H105.734M62.0001 71.7765H18.2671M62.0001 71.7765L75.8896 65.987M105.734 71.7765L118.697 65.987M105.734 71.7765H149.467M101.975 55.1135H143.043M101.975 55.1135L114.239 50.0016M101.975 55.1135H60.907M101.975 55.1135L89.2027 60.4374M143.043 55.1135L154.49 50.0016M143.043 55.1135L131.123 60.4374M143.043 55.1135H184.112M114.239 50.0016H154.49M114.239 50.0016H73.9886M114.239 50.0016L126.025 45.0891M154.49 50.0016L165.49 45.0891M154.49 50.0016H194.741M148.266 35.8179H186.248M148.266 35.8179L158.772 31.4389M148.266 35.8179H110.284M148.266 35.8179L137.358 40.3645M186.248 35.8179L196.054 31.4389M186.248 35.8179L176.068 40.3645M186.248 35.8179H224.23M158.772 31.4389H196.054M158.772 31.4389H121.49M158.772 31.4389L168.897 27.2184M196.054 31.4389L205.504 27.2184M196.054 31.4389H233.335M188.086 19.2195H223.414M188.086 19.2195L197.186 15.4261M188.086 19.2195H152.759M188.086 19.2195L178.662 23.1479M223.414 19.2195L231.907 15.4261M223.414 19.2195L214.618 23.1479M223.414 19.2195H258.741M197.186 15.4261H231.907M197.186 15.4261L205.98 11.7612M197.186 15.4261H162.466M231.907 15.4261H266.628M231.907 15.4261L240.114 11.7612M26.3237 230.805L49.203 216.499M26.3237 230.805L1.82258 246.124M26.3237 230.805H95.4911M26.3237 230.805H1.20061M49.203 216.499L70.6181 203.11M49.203 216.499H116.083M49.203 216.499H1.20061M48.7386 178.748H109.581M48.7386 178.748L68.29 167.635M48.7386 178.748L27.9738 190.551M48.7386 178.748H1.20061M109.581 178.748L127.354 167.635M109.581 178.748L90.7035 190.551M109.581 178.748H170.423M68.29 167.635H127.354M68.29 167.635H9.22577M68.29 167.635L86.732 157.152M127.354 167.635L144.12 157.152M127.354 167.635H186.419M120.643 137.877H174.948M120.643 137.877L136.268 128.996M120.643 137.877H66.3375M120.643 137.877L104.155 147.249M174.948 137.877L189.153 128.996M174.948 137.877L159.959 147.249M174.948 137.877H229.253M136.268 128.996H189.153M136.268 128.996H83.3832M136.268 128.996L151.096 120.567M189.153 128.996L202.633 120.567M189.153 128.996H242.037M178.595 104.936H227.632M178.595 104.936L191.368 97.6761M178.595 104.936H129.558M178.595 104.936L165.188 112.558M227.632 104.936L239.244 97.6761M227.632 104.936L215.443 112.558M227.632 104.936H276.669M191.368 97.6761H239.244M191.368 97.6761H143.493M191.368 97.6761L203.55 90.7519M239.244 97.6761L250.318 90.7519M239.244 97.6761H287.119M226.298 77.8217H270.998M226.298 77.8217L236.934 71.7765M226.298 77.8217H181.597M226.298 77.8217L215.181 84.1407M270.998 77.8217L280.667 71.7765M270.998 77.8217L260.892 84.1407M270.998 77.8217H315.698M236.934 71.7765H280.667M236.934 71.7765H193.201M236.934 71.7765L247.119 65.987M280.667 71.7765L289.927 65.987M280.667 71.7765H324.4M266.248 55.1135H307.317M266.248 55.1135L275.242 50.0016M266.248 55.1135H225.18M266.248 55.1135L256.882 60.4374M307.317 55.1135L308.357 54.4634L315.493 50.0016M307.317 55.1135L298.802 60.4374M307.317 55.1135H348.385M275.242 50.0016H315.493M275.242 50.0016H234.991M275.242 50.0016L283.885 45.0891M315.493 50.0016L323.35 45.0891M315.493 50.0016H355.744M300.195 35.8179H338.178M300.195 35.8179L307.9 31.4389M300.195 35.8179H262.213M300.195 35.8179L292.196 40.3645M338.178 35.8179L345.181 31.4389M338.178 35.8179L335.483 37.503L330.905 40.3645M338.178 35.8179H376.16M307.9 31.4389H345.181M307.9 31.4389H270.618M307.9 31.4389L315.325 27.2184M345.181 31.4389L351.931 27.2184M345.181 31.4389H382.463M329.396 19.2195H364.724M329.396 19.2195L336.07 15.4261M329.396 19.2195H294.069M329.396 19.2195L322.486 23.1479M364.724 19.2195L369.294 16.3626L370.044 15.893L370.791 15.4261M364.724 19.2195L358.441 23.1479M364.724 19.2195H400.052M336.07 15.4261H370.791M336.07 15.4261L342.518 11.7612M336.07 15.4261H301.349M370.791 15.4261H405.512M370.791 15.4261L376.653 11.7612M51.384 393.764H146.615M51.384 393.764L81.3701 366.98M51.384 393.764L18.4337 423.196M51.384 393.764L1.20061 393.765M146.615 393.764L172.318 366.98M146.615 393.764L118.372 423.196M146.615 393.764H241.846M81.3701 366.98H172.318M81.3701 366.98L108.775 342.502M81.3701 366.98H1.20061M172.318 366.98L195.807 342.502M172.318 366.98H263.265M157.067 299.367H237.201M157.067 299.367L178.452 280.266M157.067 299.367H76.9342M157.067 299.367L133.918 320.045M237.201 299.367L255.53 280.266M237.201 299.367L217.358 320.045M237.201 299.367H317.334M178.452 280.266H255.53M178.452 280.266H101.373M178.452 280.266L198.266 262.568M255.53 280.266L272.514 262.568M255.53 280.266H332.608M233.827 230.805H302.994M233.827 230.805L249.843 216.499M233.827 230.805H164.659M233.827 230.805L216.676 246.124M302.994 230.805L316.722 216.499M302.994 230.805L288.294 246.124M302.994 230.805H372.161M249.843 216.499H316.722M249.843 216.499H182.962M249.843 216.499L264.833 203.11M316.722 216.499L329.571 203.11M316.722 216.499H383.602M292.106 178.748H352.948M292.106 178.748L304.549 167.635M292.106 178.748H231.265M292.106 178.748L278.892 190.551M352.948 178.748L363.613 167.635M352.948 178.748L341.622 190.551M352.948 178.748H413.79M304.549 167.635H363.613M304.549 167.635H245.484M304.549 167.635L316.284 157.152M363.613 167.635L373.672 157.152M363.613 167.635H422.677M337.863 137.877H392.169M337.863 137.877L347.807 128.996M337.863 137.877H283.558M337.863 137.877L327.371 147.249M392.169 137.877L400.692 128.996M392.169 137.877L383.176 147.249M392.169 137.877H446.474M347.807 128.996H400.692M347.807 128.996H294.922M347.807 128.996L357.243 120.567M400.692 128.996L408.779 120.567M400.692 128.996H453.576M374.743 104.936H423.779M374.743 104.936L382.871 97.6761M374.743 104.936H325.705M374.743 104.936L366.211 112.558M423.779 104.936L430.746 97.6761M423.779 104.936L416.466 112.558M423.779 104.936H472.816M382.871 97.6761H430.746M382.871 97.6761H334.995M382.871 97.6761L390.623 90.7519M430.746 97.6761L437.391 90.7519M430.746 97.6761H478.622M405.098 77.8217H449.799M405.098 77.8217L411.867 71.7765M405.098 77.8217H360.398M405.098 77.8217L398.025 84.1407M449.799 77.8217L455.6 71.7765M449.799 77.8217L443.735 84.1407M449.799 77.8217H494.499M411.867 71.7765H455.6M411.867 71.7765H368.133M411.867 71.7765L418.349 65.987M455.6 71.7765L461.156 65.987M455.6 71.7765H499.334M430.522 55.1135H471.591M430.522 55.1135L436.245 50.0016M430.522 55.1135H389.454M430.522 55.1135L424.561 60.4374M471.591 55.1135L470.963 55.767L466.481 60.4374M471.591 55.1135L476.495 50.0016M471.591 55.1135H512.659M436.245 50.0016H476.495M436.245 50.0016H395.994M436.245 50.0016L441.745 45.0891M476.495 50.0016L481.21 45.0891M476.495 50.0016H516.747M452.124 35.8179H490.106M452.124 35.8179L457.027 31.4389M452.124 35.8179H414.142M452.124 35.8179L447.034 40.3645M490.106 35.8179L494.309 31.4389M490.106 35.8179L488.49 37.503L487.399 38.6397L485.744 40.3645M490.106 35.8179H528.089M457.027 31.4389H494.309M457.027 31.4389H419.745M457.027 31.4389L461.752 27.2184M494.309 31.4389L495.845 29.838L496.858 28.7828L498.359 27.2184M494.309 31.4389H531.59M470.707 19.2195H506.034M470.707 19.2195L473.906 16.3626L474.954 15.4261M470.707 19.2195H435.379M470.707 19.2195L466.867 22.649L466.309 23.1479M506.034 19.2195L508.777 16.3626L509.226 15.893L509.675 15.4261M506.034 19.2195L504.166 21.1661L502.265 23.1479M506.034 19.2195H541.362M474.954 15.4261H509.675M474.954 15.4261L479.057 11.7612M474.954 15.4261H440.233M509.675 15.4261H544.396M509.675 15.4261L513.192 11.7612M432.308 393.764H527.538M432.308 393.764L445.159 366.98M432.308 393.764H337.077M432.308 393.764L418.186 423.196M527.538 393.764L536.106 366.98M527.538 393.764L518.124 423.196M527.538 393.764H622.77M445.159 366.98H536.106M445.159 366.98H354.212M445.159 366.98L456.904 342.502M536.106 366.98L543.936 342.502M536.106 366.98H627.053M477.6 299.367H557.733M477.6 299.367L486.765 280.266M477.6 299.367H397.467M477.6 299.367L467.679 320.045M557.733 299.367L563.843 280.266M557.733 299.367L551.119 320.045M557.733 299.367H637.867M486.765 280.266H563.843M486.765 280.266H409.687M486.765 280.266L495.257 262.568M563.843 280.266L569.505 262.568M563.843 280.266H640.922M510.497 230.805H579.664M510.497 230.805L517.361 216.499M510.497 230.805H441.33M510.497 230.805L503.147 246.124M579.664 230.805L584.241 216.499M579.664 230.805L574.765 246.124M579.664 230.805H648.833M517.361 216.499H584.241M517.361 216.499H450.482M517.361 216.499L523.785 203.11M584.241 216.499L588.524 203.11M584.241 216.499H651.12M535.475 178.748H596.316M535.475 178.748L540.806 167.635M535.475 178.748H474.632M535.475 178.748L529.811 190.551M596.316 178.748L599.871 167.635M596.316 178.748L592.541 190.551M596.316 178.748H657.158M540.806 167.635H599.871M540.806 167.635H481.742M540.806 167.635L545.836 157.152M599.871 167.635L603.224 157.152M599.871 167.635H658.936M555.084 137.877H609.39M555.084 137.877L559.345 128.996M555.084 137.877H500.779M555.084 137.877L550.588 147.249M609.39 137.877L612.23 128.996M609.39 137.877L606.392 147.249M609.39 137.877H663.695M559.345 128.996H612.23M559.345 128.996H506.461M559.345 128.996L563.39 120.567M612.23 128.996L614.927 120.567M612.23 128.996H665.115M570.89 104.936H619.926M570.89 104.936L574.373 97.6761M570.89 104.936H521.853M570.89 104.936L567.233 112.558M619.926 104.936L622.249 97.6761M619.926 104.936L617.488 112.558M619.926 104.936H668.963M574.373 97.6761H622.249M574.373 97.6761H526.497M574.373 97.6761L575.638 95.0416L577.696 90.7519M622.249 97.6761L624.464 90.7519M622.249 97.6761H670.125M583.9 77.8217H628.6M583.9 77.8217L586.8 71.7765M583.9 77.8217H539.199M583.9 77.8217L581.639 82.5345L580.867 84.1407M628.6 77.8217L629.335 75.5236L630.533 71.7765M628.6 77.8217L626.578 84.1407M628.6 77.8217H673.3M586.8 71.7765L587.154 71.039L589.578 65.987M586.8 71.7765H630.533M586.8 71.7765H543.067M630.533 71.7765L631.237 69.5763L631.469 68.8504L631.7 68.1292L632.385 65.987M630.533 71.7765H674.267M594.795 55.1135H635.863M594.795 55.1135L596.034 52.5318L596.34 51.8947L596.644 51.2601L596.947 50.6295L597.248 50.0016M594.795 55.1135H553.727M594.795 55.1135L592.241 60.4374M635.863 55.1135L637.096 51.2601L637.298 50.6295L637.498 50.0016M635.863 55.1135L634.161 60.4374M635.863 55.1135H676.932M597.248 50.0016H637.498M597.248 50.0016H556.997M597.248 50.0016L598.732 46.9085L599.024 46.2988L599.605 45.0891M637.498 50.0016L638.488 46.9085L638.683 46.2988L638.877 45.6923L639.07 45.0891M637.498 50.0016H677.75M604.054 35.8179H642.036M604.054 35.8179L606.155 31.4389M604.054 35.8179H566.071M604.054 35.8179L603.515 36.9383L602.699 38.6397L601.872 40.3645M642.036 35.8179L641.857 36.3768L640.766 39.7867L640.581 40.3645M642.036 35.8179L643.436 31.4389M642.036 35.8179H680.018M606.155 31.4389H643.436M606.155 31.4389H568.873M606.155 31.4389L608.18 27.2184M643.436 31.4389L643.949 29.838L644.117 29.3091L644.286 28.7828L644.786 27.2184M643.436 31.4389H680.718M612.018 19.2195H647.345M612.018 19.2195L613.388 16.3626L613.837 15.4261M612.018 19.2195H576.69M612.018 19.2195L611.318 20.6763L611.083 21.1661L610.847 21.6584L610.132 23.1479M647.345 19.2195L647.499 18.7382L647.804 17.7816L648.108 16.8334L648.558 15.4261M647.345 19.2195L646.722 21.1661L646.565 21.6584L646.248 22.649L646.089 23.1479M647.345 19.2195H682.672M613.837 15.4261H648.558M613.837 15.4261L615.379 12.2125L615.596 11.7612M613.837 15.4261H579.116M648.558 15.4261L648.707 14.9612L648.855 14.4981L649.003 14.0371L649.149 13.578L649.586 12.2125L649.731 11.7612M648.558 15.4261H683.279M813.231 393.764H908.462M813.231 393.764L808.947 366.98M813.231 393.764H718M813.231 393.764L817.938 423.196M908.462 393.764L899.895 366.98M908.462 393.764L917.876 423.196M908.462 393.764H1003.69M808.947 366.98H899.895M808.947 366.98H718M808.947 366.98L805.032 342.502M899.895 366.98L892.064 342.502M899.895 366.98H990.841M798.133 299.367H878.267M798.133 299.367L795.078 280.266M798.133 299.367H718M798.133 299.367L801.441 320.045M878.267 299.367L872.157 280.266M878.267 299.367L884.881 320.045M878.267 299.367H958.4M795.078 280.266H872.157M795.078 280.266H718M795.078 280.266L792.248 262.568M872.157 280.266L866.496 262.568M872.157 280.266H949.235M787.167 230.805H856.336M787.167 230.805L784.88 216.499M787.167 230.805H718M787.167 230.805L789.618 246.124M856.336 230.805L851.759 216.499M856.336 230.805L861.235 246.124M856.336 230.805H925.503M784.88 216.499H851.759M784.88 216.499H718M784.88 216.499L782.738 203.11M851.759 216.499L847.476 203.11M851.759 216.499H918.639M778.842 178.748H839.684M778.842 178.748L777.064 167.635M778.842 178.748H718M778.842 178.748L780.73 190.551M839.684 178.748L836.129 167.635M839.684 178.748L843.459 190.551M839.684 178.748H900.526M777.064 167.635H836.129M777.064 167.635H718M777.064 167.635L775.388 157.152M836.129 167.635L832.776 157.152M836.129 167.635H895.194M772.305 137.877H826.61M772.305 137.877L770.885 128.996M772.305 137.877H718M772.305 137.877L773.804 147.249M826.61 137.877L823.77 128.996M826.61 137.877L829.608 147.249M826.61 137.877H880.916M770.885 128.996H823.77M770.885 128.996H718M770.885 128.996L769.536 120.567M823.77 128.996L821.074 120.567M823.77 128.996H876.655M767.037 104.936H816.074M767.037 104.936L765.876 97.6761M767.037 104.936H718M767.037 104.936L768.256 112.558M816.074 104.936L813.751 97.6761M816.074 104.936L818.512 112.558M816.074 104.936H865.11M765.876 97.6761H813.751M765.876 97.6761H718M765.876 97.6761L764.768 90.7519M813.751 97.6761L811.536 90.7519M813.751 97.6761H861.627M762.7 77.8217H807.401M762.7 77.8217L761.733 71.7765M762.7 77.8217H718M762.7 77.8217L763.711 84.1407M807.401 77.8217L805.703 72.518L805.467 71.7765M807.401 77.8217L809.422 84.1407M807.401 77.8217H852.1M761.733 71.7765L761.616 71.039L760.807 65.987M761.733 71.7765H805.467M761.733 71.7765H718M805.467 71.7765L804.763 69.5763L804.531 68.8504L804.3 68.1292L803.615 65.987M805.467 71.7765H849.2M759.068 55.1135H800.137M759.068 55.1135L758.251 50.0016M759.068 55.1135H718M759.068 55.1135L759.383 57.0842L759.49 57.7481L759.596 58.4152L759.811 59.7599L759.92 60.4374M800.137 55.1135L798.904 51.2601L798.501 50.0016M800.137 55.1135L801.839 60.4374M800.137 55.1135H841.205M758.251 50.0016H798.501M758.251 50.0016H718M758.251 50.0016L757.465 45.0891M798.501 50.0016L797.512 46.9085L797.317 46.2988L797.123 45.6923L796.93 45.0891M798.501 50.0016H838.752M755.982 35.8179H793.964M755.982 35.8179L755.282 31.4389M755.982 35.8179H718M755.982 35.8179L756.709 40.3645M793.964 35.8179L794.144 36.3768L795.234 39.7867L795.419 40.3645M793.964 35.8179L792.564 31.4389M793.964 35.8179H831.947M755.282 31.4389H792.564M755.282 31.4389H718M755.282 31.4389L754.607 27.2184M792.564 31.4389L792.051 29.838L791.883 29.3091L791.714 28.7828L791.214 27.2184M792.564 31.4389H829.845M753.328 19.2195H788.656M753.328 19.2195L752.721 15.4261M753.328 19.2195H718M753.328 19.2195L753.956 23.1479M788.656 19.2195L788.501 18.7382L788.195 17.7816L788.043 17.3062L787.741 16.3626L787.592 15.893L787.441 15.4261M788.656 19.2195L789.278 21.1661L789.435 21.6584L789.752 22.649L789.911 23.1479M788.656 19.2195H823.983M752.721 15.4261L752.647 14.9612L752.572 14.4981L752.499 14.0371L752.135 11.7612M752.721 15.4261H787.441M752.721 15.4261H718M787.441 15.4261H822.163M787.441 15.4261L787.145 14.4981L786.997 14.0371L786.851 13.578L786.414 12.2125L786.269 11.7612M1194.15 393.764H1289.38M1194.15 393.764L1172.74 366.98M1194.15 393.764H1098.92M1194.15 393.764L1217.69 423.196M1289.38 393.764L1263.68 366.98M1289.38 393.764L1317.63 423.196M1289.38 393.764H1384.62M1172.74 366.98H1263.68M1172.74 366.98H1081.79M1172.74 366.98L1153.16 342.502M1263.68 366.98L1240.19 342.502M1263.68 366.98H1354.63M1118.67 299.367H1198.8M1118.67 299.367L1103.39 280.266M1118.67 299.367H1038.53M1118.67 299.367L1135.2 320.045M1198.8 299.367L1180.47 280.266M1198.8 299.367L1218.64 320.045M1198.8 299.367H1278.93M1103.39 280.266H1180.47M1103.39 280.266H1026.31M1103.39 280.266L1089.24 262.568M1180.47 280.266L1163.49 262.568M1180.47 280.266H1257.55M1063.84 230.805H1133.01M1063.84 230.805L1052.4 216.499M1063.84 230.805H994.67M1063.84 230.805L1076.09 246.124M1133.01 230.805L1119.28 216.499M1133.01 230.805L1147.71 246.124M1133.01 230.805H1202.17M1052.4 216.499H1119.28M1052.4 216.499H985.519M1052.4 216.499L1041.69 203.11M1119.28 216.499L1106.43 203.11M1119.28 216.499H1186.16M1022.21 178.748H1083.05M1022.21 178.748L1013.32 167.635M1022.21 178.748H961.368M1022.21 178.748L1031.65 190.551M1083.05 178.748L1072.39 167.635M1083.05 178.748L1094.38 190.551M1083.05 178.748H1143.89M1013.32 167.635H1072.39M1013.32 167.635H954.258M1013.32 167.635L1004.94 157.152M1072.39 167.635L1062.33 157.152M1072.39 167.635H1131.45M989.526 137.877H1043.83M989.526 137.877L982.424 128.996M989.526 137.877H935.221M989.526 137.877L997.02 147.249M1043.83 137.877L1035.31 128.996M1043.83 137.877L1052.82 147.249M1043.83 137.877H1098.14M982.424 128.996H1035.31M982.424 128.996H929.539M982.424 128.996L975.683 120.567M1035.31 128.996L1027.22 120.567M1035.31 128.996H1088.19M963.184 104.936H1012.22M963.184 104.936L957.378 97.6761M963.184 104.936H914.147M963.184 104.936L969.279 112.558M1012.22 104.936L1005.25 97.6761M1012.22 104.936L1019.53 112.558M1012.22 104.936H1061.26M957.378 97.6761H1005.25M957.378 97.6761H909.503M957.378 97.6761L951.841 90.7519M1005.25 97.6761L998.609 90.7519M1005.25 97.6761H1053.13M941.501 77.8217L942.12 78.5964L942.743 79.375L946.554 84.1407M941.501 77.8217H986.201M941.501 77.8217L936.666 71.7765M941.501 77.8217H896.801M986.201 77.8217L980.4 71.7765M986.201 77.8217L992.265 84.1407M986.201 77.8217H1030.9M936.666 71.7765H980.4M936.666 71.7765H892.933M936.666 71.7765L932.037 65.987M980.4 71.7765L974.844 65.987M980.4 71.7765H1024.13M923.341 55.1135H964.41M923.341 55.1135L919.253 50.0016M923.341 55.1135H882.273M923.341 55.1135L927.599 60.4374M964.41 55.1135L961.321 51.8947L959.505 50.0016M964.41 55.1135L969.519 60.4374M964.41 55.1135H1005.48M919.253 50.0016H959.505M919.253 50.0016H879.003M919.253 50.0016L915.808 45.6923L915.325 45.0891M959.505 50.0016L954.79 45.0891M959.505 50.0016H999.755M907.911 35.8179H945.894M907.911 35.8179L907.024 34.7074L904.41 31.4389M907.911 35.8179H869.929M907.911 35.8179L908.808 36.9383L910.626 39.2116L911.547 40.3645M945.894 35.8179L941.691 31.4389M945.894 35.8179L947.51 37.503L948.601 38.6397L950.256 40.3645M945.894 35.8179H983.876M904.41 31.4389H941.691M904.41 31.4389H867.127M904.41 31.4389L901.867 28.2585L901.034 27.2184M941.691 31.4389L940.155 29.838L939.142 28.7828L937.641 27.2184M941.691 31.4389H978.973M894.638 19.2195H929.966M894.638 19.2195L892.73 16.8334L891.604 15.4261M894.638 19.2195H859.31M894.638 19.2195L897.779 23.1479M929.966 19.2195L927.223 16.3626L926.774 15.893L926.325 15.4261M929.966 19.2195L931.834 21.1661L933.735 23.1479M929.966 19.2195H965.293M891.604 15.4261H926.325M891.604 15.4261L890.127 13.578L889.397 12.6657L889.034 12.2125L888.674 11.7612M891.604 15.4261H856.884M926.325 15.4261H961.047M926.325 15.4261L922.808 11.7612M1411.71 280.266H1334.63M1411.71 280.266L1386.23 262.568M1411.71 280.266H1434.8M1411.71 280.266L1434.8 296.31M1340.51 230.805H1409.68M1340.51 230.805L1319.92 216.499M1340.51 230.805H1271.34M1340.51 230.805L1362.56 246.124M1409.68 230.805L1386.8 216.499M1409.68 230.805L1434.18 246.124M1409.68 230.805H1434.8M1319.92 216.499H1386.8M1319.92 216.499H1253.04M1319.92 216.499L1300.64 203.11M1386.8 216.499L1365.38 203.11M1386.8 216.499H1434.8M1265.58 178.748H1326.42M1265.58 178.748L1249.58 167.635M1265.58 178.748H1204.74M1265.58 178.748L1282.57 190.551M1326.42 178.748L1308.65 167.635M1326.42 178.748L1345.3 190.551M1326.42 178.748H1387.26M1249.58 167.635H1308.65M1249.58 167.635H1190.52M1249.58 167.635L1234.49 157.152M1308.65 167.635L1291.88 157.152M1308.65 167.635H1367.71M1206.75 137.877H1261.05M1206.75 137.877L1193.96 128.996M1206.75 137.877H1152.44M1206.75 137.877L1220.24 147.249M1261.05 137.877L1246.85 128.996M1261.05 137.877L1276.04 147.249M1261.05 137.877H1315.36M1193.96 128.996H1246.85M1193.96 128.996H1141.08M1193.96 128.996L1181.83 120.567M1246.85 128.996L1233.37 120.567M1246.85 128.996H1299.73M1159.33 104.936H1208.37M1159.33 104.936L1148.88 97.6761M1159.33 104.936H1110.29M1159.33 104.936L1170.3 112.558M1208.37 104.936L1196.76 97.6761M1208.37 104.936L1220.56 112.558M1208.37 104.936H1257.4M1148.88 97.6761H1196.76M1148.88 97.6761H1101.01M1148.88 97.6761L1138.91 90.7519M1196.76 97.6761L1185.68 90.7519M1196.76 97.6761H1244.63M1120.3 77.8217H1165M1120.3 77.8217L1111.6 71.7765M1120.3 77.8217H1075.6M1120.3 77.8217L1129.4 84.1407M1165 77.8217L1155.33 71.7765M1165 77.8217L1175.11 84.1407M1165 77.8217H1209.7M1111.6 71.7765H1155.33M1111.6 71.7765H1067.87M1111.6 71.7765L1103.27 65.987M1155.33 71.7765L1146.07 65.987M1155.33 71.7765H1199.07M1087.61 55.1135H1128.68M1087.61 55.1135L1080.26 50.0016M1087.61 55.1135H1046.55M1087.61 55.1135L1095.28 60.4374M1128.68 55.1135L1120.51 50.0016M1128.68 55.1135L1137.2 60.4374M1128.68 55.1135H1169.75M1080.26 50.0016H1120.51M1080.26 50.0016H1040.01M1080.26 50.0016L1073.19 45.0891M1120.51 50.0016L1112.65 45.0891M1120.51 50.0016H1160.76M1059.84 35.8179H1097.82M1059.84 35.8179L1053.54 31.4389M1059.84 35.8179H1021.86M1059.84 35.8179L1061.45 36.9383L1062.27 37.503L1066.39 40.3645M1097.82 35.8179L1090.82 31.4389M1097.82 35.8179L1105.09 40.3645M1097.82 35.8179H1135.8M1053.54 31.4389H1090.82M1053.54 31.4389H1016.26M1053.54 31.4389L1047.46 27.2184M1090.82 31.4389L1084.07 27.2184M1090.82 31.4389H1128.1M1035.95 19.2195H1071.28M1035.95 19.2195L1030.49 15.4261M1035.95 19.2195H1000.62M1035.95 19.2195L1041.6 23.1479M1071.28 19.2195L1066.71 16.3626L1065.96 15.893L1065.21 15.4261M1071.28 19.2195L1077.56 23.1479M1071.28 19.2195H1106.6M1030.49 15.4261H1065.21M1030.49 15.4261L1025.86 12.2125L1025.21 11.7612M1030.49 15.4261H995.767M1065.21 15.4261H1099.93M1065.21 15.4261L1059.35 11.7612M1423.97 137.877L1405.5 128.996M1423.97 137.877H1369.66M1423.97 137.877L1434.8 143.087M1423.97 137.877H1434.8M1405.5 128.996H1352.62M1405.5 128.996L1387.98 120.567M1405.5 128.996H1434.8M1355.48 104.936H1404.52M1355.48 104.936L1340.38 97.6761M1355.48 104.936H1306.44M1355.48 104.936L1371.32 112.558M1404.52 104.936L1388.26 97.6761M1404.52 104.936L1421.58 112.558M1404.52 104.936H1434.8M1340.38 97.6761H1388.26M1340.38 97.6761H1292.51M1340.38 97.6761L1325.99 90.7519M1388.26 97.6761L1372.75 90.7519M1388.26 97.6761H1434.8M1299.1 77.8217H1343.8M1299.1 77.8217L1286.53 71.7765M1299.1 77.8217H1254.4M1299.1 77.8217L1312.24 84.1407M1343.8 77.8217L1330.27 71.7765M1343.8 77.8217L1357.95 84.1407M1343.8 77.8217H1388.5M1286.53 71.7765H1330.27M1286.53 71.7765H1242.8M1286.53 71.7765L1274.5 65.987M1330.27 71.7765L1317.3 65.987M1330.27 71.7765H1374M1251.89 55.1135H1292.96M1251.89 55.1135L1241.26 50.0016M1251.89 55.1135H1210.82M1251.89 55.1135L1262.96 60.4374M1292.96 55.1135L1281.51 50.0016M1292.96 55.1135L1304.88 60.4374M1292.96 55.1135H1334.02M1241.26 50.0016H1281.51M1241.26 50.0016H1201.01M1241.26 50.0016L1231.05 45.0891M1281.51 50.0016L1270.51 45.0891M1281.51 50.0016H1321.76M1211.77 35.8179H1249.75M1211.77 35.8179L1202.66 31.4389M1211.77 35.8179H1173.79M1211.77 35.8179L1221.22 40.3645M1249.75 35.8179L1239.95 31.4389M1249.75 35.8179L1259.93 40.3645M1249.75 35.8179H1287.73M1202.66 31.4389H1239.95M1202.66 31.4389H1165.38M1202.66 31.4389L1193.89 27.2184M1239.95 31.4389L1230.5 27.2184M1239.95 31.4389H1277.23M1177.26 19.2195H1212.59M1177.26 19.2195L1169.37 15.4261M1177.26 19.2195H1141.93M1177.26 19.2195L1185.43 23.1479M1212.59 19.2195L1204.09 15.4261M1212.59 19.2195L1221.38 23.1479M1212.59 19.2195H1247.91M1169.37 15.4261H1204.09M1169.37 15.4261L1161.75 11.7612M1169.37 15.4261H1134.65M1204.09 15.4261H1238.81M1204.09 15.4261L1195.89 11.7612M1416.16 55.1135L1402.26 50.0016M1416.16 55.1135H1375.09M1416.16 55.1135L1430.64 60.4374M1416.16 55.1135H1434.8M1402.26 50.0016H1362.01M1402.26 50.0016L1388.91 45.0891M1402.26 50.0016H1434.8M1363.7 35.8179H1401.68M1363.7 35.8179L1351.79 31.4389M1363.7 35.8179H1325.72M1363.7 35.8179L1376.06 40.3645M1401.68 35.8179L1389.07 31.4389M1401.68 35.8179L1414.77 40.3645M1401.68 35.8179H1434.8M1351.79 31.4389H1389.07M1351.79 31.4389H1314.51M1351.79 31.4389L1340.32 27.2184M1389.07 31.4389L1376.92 27.2184M1389.07 31.4389H1426.36M1318.57 19.2195H1353.9M1318.57 19.2195L1308.26 15.4261M1318.57 19.2195H1283.24M1318.57 19.2195L1329.25 23.1479M1353.9 19.2195L1342.98 15.4261M1353.9 19.2195L1365.2 23.1479M1353.9 19.2195H1389.22M1308.26 15.4261H1342.98M1308.26 15.4261L1298.29 11.7612M1308.26 15.4261H1273.53M1342.98 15.4261H1377.7M1342.98 15.4261L1332.42 11.7612M1365.2 23.1479L1376.92 27.2184M1365.2 23.1479H1401.16M1365.2 23.1479H1329.25M1389.22 19.2195L1377.7 15.4261M1389.22 19.2195L1401.16 23.1479M1389.22 19.2195H1424.55M1377.7 15.4261H1412.42M1377.7 15.4261L1366.56 11.7612M1332.42 11.7612H1298.29M1332.42 11.7612H1366.56M1332.42 11.7612L1322.22 8.21758M1401.16 23.1479L1413.53 27.2184M1401.16 23.1479H1434.8M1424.55 19.2195L1412.42 15.4261M1424.55 19.2195L1434.8 22.4231M1424.55 19.2195H1434.8M1412.42 15.4261L1400.69 11.7612M1412.42 15.4261H1434.8M1366.56 11.7612H1400.69M1366.56 11.7612L1355.79 8.21758M1400.69 11.7612L1389.36 8.21758M1400.69 11.7612H1434.8M1376.92 27.2184H1413.53M1376.92 27.2184H1340.32M1426.36 31.4389L1413.53 27.2184M1426.36 31.4389L1434.8 34.217M1426.36 31.4389H1434.8M1413.53 27.2184H1434.8M1340.32 27.2184H1303.71M1340.32 27.2184L1329.25 23.1479M1329.25 23.1479H1293.29M1414.77 40.3645L1428.37 45.0891M1414.77 40.3645H1376.06M1414.77 40.3645H1434.8M1434.92 35.8179H1434.8M1428.37 45.0891H1388.91M1428.37 45.0891L1434.8 47.322M1428.37 45.0891H1434.8M1388.91 45.0891H1349.44M1388.91 45.0891L1376.06 40.3645M1376.06 40.3645H1337.35M1221.38 23.1479L1230.5 27.2184M1221.38 23.1479H1257.34M1221.38 23.1479H1185.43M1247.91 19.2195L1238.81 15.4261M1247.91 19.2195L1257.34 23.1479M1247.91 19.2195H1283.24M1238.81 15.4261H1273.53M1238.81 15.4261L1230.02 11.7612M1195.89 11.7612H1230.02M1195.89 11.7612L1187.95 8.21758M1195.89 11.7612H1161.75M1257.34 23.1479L1267.1 27.2184M1257.34 23.1479H1293.29M1283.24 19.2195L1273.53 15.4261M1283.24 19.2195L1293.29 23.1479M1273.53 15.4261L1264.16 11.7612M1230.02 11.7612H1264.16M1230.02 11.7612L1221.52 8.21758M1293.29 23.1479L1303.71 27.2184M1298.29 11.7612H1264.16M1298.29 11.7612L1288.66 8.21758M1264.16 11.7612L1255.09 8.21758M1230.5 27.2184H1267.1M1230.5 27.2184H1193.89M1277.23 31.4389L1267.1 27.2184M1277.23 31.4389L1287.73 35.8179M1277.23 31.4389H1314.51M1267.1 27.2184H1303.71M1193.89 27.2184H1157.28M1193.89 27.2184L1185.43 23.1479M1303.71 27.2184L1314.51 31.4389M1185.43 23.1479H1149.47M1287.73 35.8179L1298.64 40.3645M1287.73 35.8179H1325.72M1314.51 31.4389L1325.72 35.8179M1325.72 35.8179L1337.35 40.3645M1259.93 40.3645L1270.51 45.0891M1259.93 40.3645H1298.64M1259.93 40.3645H1221.22M1298.64 40.3645L1309.98 45.0891M1298.64 40.3645H1337.35M1337.35 40.3645L1349.44 45.0891M1270.51 45.0891H1309.98M1270.51 45.0891H1231.05M1321.76 50.0016L1309.98 45.0891M1321.76 50.0016L1334.02 55.1135M1321.76 50.0016H1362.01M1309.98 45.0891H1349.44M1231.05 45.0891H1191.58M1231.05 45.0891L1221.22 40.3645M1349.44 45.0891L1362.01 50.0016M1221.22 40.3645H1182.51M1334.02 55.1135L1346.8 60.4374M1334.02 55.1135H1375.09M1362.01 50.0016L1375.09 55.1135M1375.09 55.1135L1388.72 60.4374M1304.88 60.4374L1317.3 65.987M1304.88 60.4374H1346.8M1304.88 60.4374H1262.96M1346.8 60.4374L1360.11 65.987M1346.8 60.4374H1388.72M1388.72 60.4374L1402.92 65.987M1388.72 60.4374H1430.64M1430.64 60.4374H1434.8M1430.64 60.4374L1434.8 61.9682M1317.3 65.987H1360.11M1317.3 65.987H1274.5M1374 71.7765L1360.11 65.987M1374 71.7765L1388.5 77.8217M1374 71.7765H1417.73M1360.11 65.987H1402.92M1274.5 65.987H1231.69M1274.5 65.987L1262.96 60.4374M1402.92 65.987L1417.73 71.7765M1402.92 65.987H1434.8M1262.96 60.4374H1221.04M1388.5 77.8217L1403.66 84.1407M1388.5 77.8217H1433.2M1417.73 71.7765L1433.2 77.8217M1417.73 71.7765H1434.8M1435.02 65.987H1434.8M1433.2 77.8217L1434.8 78.4455M1433.2 77.8217H1434.8M1357.95 84.1407L1372.75 90.7519M1357.95 84.1407H1403.66M1357.95 84.1407H1312.24M1403.66 84.1407L1419.52 90.7519M1403.66 84.1407H1434.8M1435.19 78.5964L1434.8 78.4455M1372.75 90.7519H1419.52M1372.75 90.7519H1325.99M1419.52 90.7519H1434.8M1419.52 90.7519L1434.8 97.1196M1325.99 90.7519H1279.22M1325.99 90.7519L1312.24 84.1407M1312.24 84.1407H1266.53M1421.58 112.558H1371.32M1421.58 112.558L1434.8 118.461M1421.58 112.558H1434.8M1435.16 104.936H1434.8M1371.32 112.558H1321.07M1371.32 112.558L1387.98 120.567M1434.94 118.526L1434.8 118.461M1077.56 23.1479L1084.07 27.2184M1077.56 23.1479H1113.51M1077.56 23.1479H1041.6M1106.6 19.2195L1099.93 15.4261M1106.6 19.2195L1113.51 23.1479M1106.6 19.2195H1141.93M1099.93 15.4261H1134.65M1099.93 15.4261L1093.48 11.7612M1059.35 11.7612H1093.48M1059.35 11.7612L1057.2 10.4185L1053.68 8.21758M1059.35 11.7612H1025.21M1113.51 23.1479L1120.68 27.2184M1113.51 23.1479H1149.47M1141.93 19.2195L1134.65 15.4261M1141.93 19.2195L1149.47 23.1479M1134.65 15.4261L1127.62 11.7612M1093.48 11.7612H1127.62M1093.48 11.7612L1087.25 8.21758M1149.47 23.1479L1157.28 27.2184M1161.75 11.7612L1154.38 8.21758M1161.75 11.7612H1127.62M1127.62 11.7612L1126.75 11.3112L1125.04 10.4185L1120.82 8.21758M1084.07 27.2184H1120.68M1084.07 27.2184H1047.46M1128.1 31.4389L1120.68 27.2184M1128.1 31.4389L1135.8 35.8179M1128.1 31.4389H1165.38M1120.68 27.2184H1157.28M1047.46 27.2184H1010.86M1047.46 27.2184L1041.6 23.1479M1157.28 27.2184L1165.38 31.4389M1041.6 23.1479H1005.65M1135.8 35.8179L1143.8 40.3645M1135.8 35.8179H1173.79M1165.38 31.4389L1166.42 31.9769L1173.79 35.8179M1173.79 35.8179L1182.51 40.3645M1105.09 40.3645L1106.02 40.9455L1112.65 45.0891M1105.09 40.3645H1143.8M1105.09 40.3645H1066.39M1143.8 40.3645L1152.12 45.0891M1143.8 40.3645H1182.51M1182.51 40.3645L1191.58 45.0891M1112.65 45.0891H1152.12M1112.65 45.0891H1073.19M1160.76 50.0016L1152.12 45.0891M1160.76 50.0016L1169.75 55.1135M1160.76 50.0016H1201.01M1152.12 45.0891H1191.58M1073.19 45.0891H1033.72M1073.19 45.0891L1066.39 40.3645M1191.58 45.0891L1201.01 50.0016M1066.39 40.3645H1027.68M1169.75 55.1135L1179.12 60.4374M1169.75 55.1135H1210.82M1201.01 50.0016L1210.82 55.1135M1210.82 55.1135L1221.04 60.4374M1137.2 60.4374L1146.07 65.987M1137.2 60.4374H1179.12M1137.2 60.4374H1095.28M1179.12 60.4374L1188.88 65.987M1179.12 60.4374H1221.04M1221.04 60.4374L1231.69 65.987M1146.07 65.987H1188.88M1146.07 65.987H1103.27M1199.07 71.7765L1188.88 65.987M1199.07 71.7765L1209.7 77.8217M1199.07 71.7765H1242.8M1188.88 65.987H1231.69M1103.27 65.987H1060.46M1103.27 65.987L1095.28 60.4374M1231.69 65.987L1242.8 71.7765M1095.28 60.4374H1053.36M1209.7 77.8217L1220.82 84.1407M1209.7 77.8217H1254.4M1242.8 71.7765L1254.4 77.8217M1254.4 77.8217L1266.53 84.1407M1175.11 84.1407L1185.68 90.7519M1175.11 84.1407H1220.82M1175.11 84.1407H1129.4M1220.82 84.1407L1232.45 90.7519M1220.82 84.1407H1266.53M1266.53 84.1407L1279.22 90.7519M1185.68 90.7519H1232.45M1185.68 90.7519H1138.91M1244.63 97.6761L1232.45 90.7519M1244.63 97.6761L1257.4 104.936M1244.63 97.6761H1292.51M1232.45 90.7519H1279.22M1138.91 90.7519H1092.15M1138.91 90.7519L1129.4 84.1407M1279.22 90.7519L1292.51 97.6761M1129.4 84.1407H1083.69M1257.4 104.936L1270.81 112.558M1257.4 104.936H1306.44M1292.51 97.6761L1306.44 104.936M1306.44 104.936L1321.07 112.558M1220.56 112.558L1233.37 120.567M1220.56 112.558H1270.81M1220.56 112.558H1170.3M1270.81 112.558L1284.9 120.567M1270.81 112.558H1321.07M1321.07 112.558L1336.44 120.567M1233.37 120.567H1284.9M1233.37 120.567H1181.83M1299.73 128.996L1284.9 120.567M1299.73 128.996L1315.36 137.877M1299.73 128.996H1352.62M1284.9 120.567H1336.44M1181.83 120.567H1130.29M1181.83 120.567L1170.3 112.558M1336.44 120.567L1352.62 128.996M1336.44 120.567H1387.98M1170.3 112.558H1120.05M1315.36 137.877L1331.84 147.249M1315.36 137.877H1369.66M1352.62 128.996L1369.66 137.877M1387.98 120.567H1434.8M1369.66 137.877L1387.65 147.249M1276.04 147.249L1291.88 157.152M1276.04 147.249H1331.84M1276.04 147.249H1220.24M1331.84 147.249L1349.27 157.152M1331.84 147.249H1387.65M1387.65 147.249L1406.66 157.152M1387.65 147.249H1434.8M1291.88 157.152H1349.27M1291.88 157.152H1234.49M1367.71 167.635L1349.27 157.152M1367.71 167.635L1387.26 178.748M1367.71 167.635H1426.77M1349.27 157.152H1406.66M1234.49 157.152H1177.1M1234.49 157.152L1220.24 147.249M1406.66 157.152L1426.77 167.635M1406.66 157.152H1434.8M1220.24 147.249H1164.43M1387.26 178.748L1408.03 190.551M1387.26 178.748H1434.8M1426.77 167.635H1434.8M1426.77 167.635L1434.8 171.816M1345.3 190.551L1365.38 203.11M1345.3 190.551H1408.03M1345.3 190.551H1282.57M1408.03 190.551L1430.12 203.11M1408.03 190.551H1434.8M1365.38 203.11H1430.12M1365.38 203.11H1300.64M1430.12 203.11L1434.8 205.769M1430.12 203.11H1434.8M1300.64 203.11H1235.91M1300.64 203.11L1282.57 190.551M1282.57 190.551H1219.84M1434.18 246.124H1362.56M1434.18 246.124H1434.8M1434.18 246.124L1434.8 246.512M1362.56 246.124H1290.94M1362.56 246.124L1386.23 262.568M933.735 23.1479L935.183 24.6569L935.67 25.1649L937.641 27.2184M933.735 23.1479H969.691M933.735 23.1479H897.779M965.293 19.2195L962.094 16.3626L961.047 15.4261M965.293 19.2195L969.133 22.649L969.691 23.1479M965.293 19.2195H1000.62M961.047 15.4261H995.767M961.047 15.4261L956.943 11.7612M922.808 11.7612H956.943M922.808 11.7612L921.52 10.4185L919.408 8.21758M922.808 11.7612H888.674M969.691 23.1479L970.815 24.1515L974.248 27.2184M969.691 23.1479H1005.65M1000.62 19.2195L995.767 15.4261M1000.62 19.2195L1005.65 23.1479M995.767 15.4261L992.235 12.6657L991.077 11.7612M956.943 11.7612H991.077M956.943 11.7612L952.976 8.21758M1005.65 23.1479L1010.86 27.2184M1025.21 11.7612L1024.57 11.3112L1020.11 8.21758M1025.21 11.7612H991.077M991.077 11.7612L989.359 10.4185L986.544 8.21758M937.641 27.2184H974.248M937.641 27.2184H901.034M978.973 31.4389L974.248 27.2184M978.973 31.4389L983.876 35.8179M978.973 31.4389H1016.26M974.248 27.2184H1010.86M901.034 27.2184H864.427M901.034 27.2184L897.779 23.1479M1010.86 27.2184L1016.26 31.4389M897.779 23.1479H861.824M983.876 35.8179L987.034 38.6397L987.676 39.2116L988.966 40.3645M983.876 35.8179H1021.86M1016.26 31.4389L1021.86 35.8179M1021.86 35.8179L1027.68 40.3645M950.256 40.3645L954.79 45.0891M950.256 40.3645H988.966M950.256 40.3645H911.547M988.966 40.3645L994.255 45.0891M988.966 40.3645H1027.68M1027.68 40.3645L1033.72 45.0891M954.79 45.0891H994.255M954.79 45.0891H915.325M999.755 50.0016L996.292 46.9085L995.61 46.2988L994.255 45.0891M999.755 50.0016L1005.48 55.1135M999.755 50.0016H1040.01M994.255 45.0891H1033.72M915.325 45.0891H875.86M915.325 45.0891L911.547 40.3645M1033.72 45.0891L1040.01 50.0016M911.547 40.3645H872.838M1005.48 55.1135L1011.44 60.4374M1005.48 55.1135H1046.55M1040.01 50.0016L1046.55 55.1135M1046.55 55.1135L1053.36 60.4374M969.519 60.4374L972.154 63.1829L972.821 63.8787L974.844 65.987M969.519 60.4374H1011.44M969.519 60.4374H927.599M1011.44 60.4374L1017.65 65.987M1011.44 60.4374H1053.36M1053.36 60.4374L1060.46 65.987M974.844 65.987H1017.65M974.844 65.987H932.037M1024.13 71.7765L1017.65 65.987M1024.13 71.7765L1030.9 77.8217M1024.13 71.7765H1067.87M1017.65 65.987H1060.46M932.037 65.987H889.229M932.037 65.987L930.91 64.5777L927.599 60.4374M1060.46 65.987L1067.87 71.7765M927.599 60.4374H885.68M1030.9 77.8217L1037.98 84.1407M1030.9 77.8217H1075.6M1067.87 71.7765L1075.6 77.8217M1075.6 77.8217L1083.69 84.1407M992.265 84.1407L998.609 90.7519M992.265 84.1407H1037.98M992.265 84.1407H946.554M1037.98 84.1407L1045.38 90.7519M1037.98 84.1407H1083.69M1083.69 84.1407L1092.15 90.7519M998.609 90.7519H1045.38M998.609 90.7519H951.841M1053.13 97.6761L1045.38 90.7519M1053.13 97.6761L1061.26 104.936M1053.13 97.6761H1101.01M1045.38 90.7519H1092.15M951.841 90.7519H905.073M951.841 90.7519L946.554 84.1407M1092.15 90.7519L1101.01 97.6761M946.554 84.1407H900.844M1061.26 104.936L1069.79 112.558M1061.26 104.936H1110.29M1101.01 97.6761L1110.29 104.936M1110.29 104.936L1120.05 112.558M1019.53 112.558L1027.22 120.567M1019.53 112.558H1069.79M1019.53 112.558H969.279M1069.79 112.558L1078.76 120.567M1069.79 112.558H1120.05M1120.05 112.558L1130.29 120.567M1027.22 120.567H1078.76M1027.22 120.567H975.683M1088.19 128.996L1078.76 120.567M1088.19 128.996L1098.14 137.877M1088.19 128.996H1141.08M1078.76 120.567H1130.29M975.683 120.567H924.147M975.683 120.567L969.279 112.558M1130.29 120.567L1141.08 128.996M969.279 112.558H919.023M1098.14 137.877L1108.63 147.249M1098.14 137.877H1152.44M1141.08 128.996L1152.44 137.877M1152.44 137.877L1164.43 147.249M1052.82 147.249L1062.33 157.152M1052.82 147.249H1108.63M1052.82 147.249H997.02M1108.63 147.249L1119.72 157.152M1108.63 147.249H1164.43M1164.43 147.249L1177.1 157.152M1062.33 157.152H1119.72M1062.33 157.152H1004.94M1131.45 167.635L1119.72 157.152M1131.45 167.635L1143.89 178.748M1131.45 167.635H1190.52M1119.72 157.152H1177.1M1004.94 157.152H947.552M1004.94 157.152L997.02 147.249M1177.1 157.152L1190.52 167.635M997.02 147.249H941.217M1143.89 178.748L1157.11 190.551M1143.89 178.748H1204.74M1190.52 167.635L1204.74 178.748M1204.74 178.748L1219.84 190.551M1094.38 190.551L1106.43 203.11M1094.38 190.551H1157.11M1094.38 190.551H1031.65M1157.11 190.551L1171.17 203.11M1157.11 190.551H1219.84M1219.84 190.551L1235.91 203.11M1106.43 203.11H1171.17M1106.43 203.11H1041.69M1186.16 216.499L1171.17 203.11M1186.16 216.499L1202.17 230.805M1186.16 216.499H1253.04M1171.17 203.11H1235.91M1041.69 203.11H976.953M1041.69 203.11L1031.65 190.551M1235.91 203.11L1253.04 216.499M1031.65 190.551H968.919M1202.17 230.805L1219.32 246.124M1202.17 230.805H1271.34M1253.04 216.499L1271.34 230.805M1271.34 230.805L1290.94 246.124M1147.71 246.124L1163.49 262.568M1147.71 246.124H1219.32M1147.71 246.124H1076.09M1219.32 246.124L1237.73 262.568M1219.32 246.124H1290.94M1290.94 246.124L1311.98 262.568M1163.49 262.568H1237.73M1163.49 262.568H1089.24M1257.55 280.266L1237.73 262.568M1257.55 280.266L1278.93 299.367M1257.55 280.266H1334.63M1237.73 262.568H1311.98M1089.24 262.568H1014.99M1089.24 262.568L1076.09 246.124M1311.98 262.568L1334.63 280.266M1311.98 262.568H1386.23M1076.09 246.124H1004.47M1278.93 299.367L1302.08 320.045M1278.93 299.367H1359.07M1334.63 280.266L1359.07 299.367M1386.23 262.568H1434.8M1359.07 299.367L1385.52 320.045M1359.07 299.367H1434.8M1218.64 320.045L1240.19 342.502M1218.64 320.045H1302.08M1218.64 320.045H1135.2M1302.08 320.045L1327.23 342.502M1302.08 320.045H1385.52M1385.52 320.045L1414.26 342.502M1385.52 320.045H1434.8M1240.19 342.502H1327.23M1240.19 342.502H1153.16M1354.63 366.98L1327.23 342.502M1354.63 366.98L1384.62 393.764M1354.63 366.98H1434.8M1327.23 342.502H1414.26M1153.16 342.502H1066.13M1153.16 342.502L1135.2 320.045M1414.26 342.502H1434.8M1414.26 342.502L1434.8 358.558M1135.2 320.045H1051.76M1384.62 393.764L1417.57 423.196M1384.62 393.764H1434.8M1317.63 423.196L1348.81 455.69M1317.63 423.196H1417.57M1317.63 423.196H1217.69M1417.57 423.196L1434.8 438.59M1417.57 423.196H1434.8M1348.81 455.69H1243.67M1348.81 455.69L1434.8 455.689M1243.67 455.69H1138.54M1243.67 455.69L1217.69 423.196M1217.69 423.196H1117.75M789.911 23.1479L790.072 23.6487L790.233 24.1515L790.395 24.6569L790.557 25.1649L791.049 26.7013L791.214 27.2184M789.911 23.1479H825.868M789.911 23.1479H753.956M823.983 19.2195L822.612 16.3626L822.163 15.4261M823.983 19.2195L825.153 21.6584L825.868 23.1479M823.983 19.2195H859.31M822.163 15.4261H856.884M822.163 15.4261L820.838 12.6657L820.404 11.7612M786.269 11.7612L786.126 11.3112L785.557 9.53225L785.136 8.21758M786.269 11.7612H820.404M786.269 11.7612H752.135M825.868 23.1479L826.108 23.6487L826.349 24.1515L826.591 24.6569L826.836 25.1649L827.82 27.2184M825.868 23.1479H861.824M859.31 19.2195L857.482 16.3626L856.884 15.4261M859.31 19.2195L861.824 23.1479M856.884 15.4261L855.701 13.578L854.827 12.2125L854.539 11.7612M820.404 11.7612L820.189 11.3112L819.76 10.4185L819.334 9.53225L819.124 9.09207L818.704 8.21758M820.404 11.7612H854.539M861.824 23.1479L863.768 26.1868L864.427 27.2184M888.674 11.7612L886.54 9.09207L885.84 8.21758M888.674 11.7612H854.539M854.539 11.7612L852.551 8.65385L852.271 8.21758M791.214 27.2184H827.82M791.214 27.2184H754.607M829.845 31.4389L827.82 27.2184M829.845 31.4389L831.947 35.8179M829.845 31.4389H867.127M827.82 27.2184H864.427M754.607 27.2184H718M754.607 27.2184L753.956 23.1479M864.427 27.2184L867.127 31.4389M753.956 23.1479H718M831.947 35.8179L832.485 36.9383L833.301 38.6397L834.128 40.3645M831.947 35.8179H869.929M867.127 31.4389L867.472 31.9769L869.929 35.8179M869.929 35.8179L870.286 36.3768L870.646 36.9383L871.007 37.503L872.838 40.3645M795.419 40.3645L796.93 45.0891M795.419 40.3645H834.128M795.419 40.3645H756.709M834.128 40.3645L836.395 45.0891M834.128 40.3645H872.838M872.838 40.3645L875.093 43.8905L875.476 44.4885L875.86 45.0891M796.93 45.0891H836.395M796.93 45.0891H757.465M838.752 50.0016L839.053 50.6295L839.356 51.2601L839.66 51.8947L841.205 55.1135M838.752 50.0016L837.562 47.5209L837.268 46.9085L836.976 46.2988L836.395 45.0891M838.752 50.0016H879.003M836.395 45.0891H875.86M757.465 45.0891H718M757.465 45.0891L756.709 40.3645M875.86 45.0891L879.003 50.0016M756.709 40.3645H718M841.205 55.1135L843.435 59.7599L843.759 60.4374M841.205 55.1135H882.273M879.003 50.0016L879.809 51.2601L882.273 55.1135M882.273 55.1135L883.534 57.0842L885.68 60.4374M801.839 60.4374L802.718 63.1829L802.94 63.8787L803.615 65.987M801.839 60.4374H843.759M801.839 60.4374H759.92M843.759 60.4374L846.422 65.987M843.759 60.4374H885.68M885.68 60.4374L889.229 65.987M803.615 65.987H846.422M803.615 65.987H760.807M849.2 71.7765L846.422 65.987M849.2 71.7765L852.1 77.8217M849.2 71.7765H892.933M846.422 65.987H889.229M760.807 65.987H718M760.807 65.987L760.582 64.5777L760.138 61.803L759.92 60.4374M889.229 65.987L892.933 71.7765M759.92 60.4374H718M852.1 77.8217L854.361 82.5345L855.133 84.1407M852.1 77.8217H896.801M892.933 71.7765L896.801 77.8217M896.801 77.8217L898.799 80.946L900.844 84.1407M809.422 84.1407L811.536 90.7519M809.422 84.1407H855.133M809.422 84.1407H763.711M855.133 84.1407L858.305 90.7519M855.133 84.1407H900.844M900.844 84.1407L905.073 90.7519M811.536 90.7519H858.305M811.536 90.7519H764.768M861.627 97.6761L860.781 95.9147L858.305 90.7519M861.627 97.6761L865.11 104.936M861.627 97.6761H909.503M858.305 90.7519H905.073M764.768 90.7519H718M764.768 90.7519L763.711 84.1407M905.073 90.7519L909.503 97.6761M763.711 84.1407H718M865.11 104.936L868.767 112.558M865.11 104.936H914.147M909.503 97.6761L914.147 104.936M914.147 104.936L919.023 112.558M818.512 112.558L821.074 120.567M818.512 112.558H868.767M818.512 112.558H768.256M868.767 112.558L872.61 120.567M868.767 112.558H919.023M919.023 112.558L924.147 120.567M821.074 120.567H872.61M821.074 120.567H769.536M876.655 128.996L872.61 120.567M876.655 128.996L880.916 137.877M876.655 128.996H929.539M872.61 120.567H924.147M769.536 120.567H718M769.536 120.567L768.412 113.537L768.256 112.558M924.147 120.567L929.539 128.996M768.256 112.558H718M880.916 137.877L885.412 147.249M880.916 137.877H935.221M929.539 128.996L933.772 135.613L935.221 137.877M935.221 137.877L941.217 147.249M829.608 147.249L832.776 157.152M829.608 147.249H885.412M829.608 147.249H773.804M885.412 147.249L890.164 157.152M885.412 147.249H941.217M941.217 147.249L947.552 157.152M832.776 157.152H890.164M832.776 157.152H775.388M895.194 167.635L890.164 157.152M895.194 167.635L900.526 178.748M895.194 167.635H954.258M890.164 157.152H947.552M775.388 157.152H718M775.388 157.152L773.804 147.249M947.552 157.152L954.258 167.635M773.804 147.249H718M900.526 178.748L906.189 190.551M900.526 178.748H961.368M954.258 167.635L961.368 178.748M961.368 178.748L968.919 190.551M843.459 190.551L847.476 203.11M843.459 190.551H906.189M843.459 190.551H780.73M906.189 190.551L912.215 203.11M906.189 190.551H968.919M968.919 190.551L976.953 203.11M847.476 203.11H912.215M847.476 203.11H782.738M918.639 216.499L912.215 203.11M918.639 216.499L925.503 230.805M918.639 216.499H985.519M912.215 203.11H976.953M782.738 203.11H718M782.738 203.11L780.73 190.551M976.953 203.11L985.519 216.499M780.73 190.551H718M925.503 230.805L932.853 246.124M925.503 230.805H994.67M985.519 216.499L994.67 230.805M994.67 230.805L1004.47 246.124M861.235 246.124L866.496 262.568M861.235 246.124H932.853M861.235 246.124H789.618M932.853 246.124L940.743 262.568M932.853 246.124H1004.47M1004.47 246.124L1014.99 262.568M866.496 262.568H940.743M866.496 262.568H792.248M949.235 280.266L940.743 262.568M949.235 280.266L958.4 299.367M949.235 280.266H1026.31M940.743 262.568H1014.99M792.248 262.568H718M792.248 262.568L789.618 246.124M1014.99 262.568L1026.31 280.266M789.618 246.124H718M958.4 299.367L968.321 320.045M958.4 299.367H1038.53M1026.31 280.266L1038.53 299.367M1038.53 299.367L1051.76 320.045M884.881 320.045L892.064 342.502M884.881 320.045H968.321M884.881 320.045H801.441M968.321 320.045L979.096 342.502M968.321 320.045H1051.76M1051.76 320.045L1066.13 342.502M892.064 342.502H979.096M892.064 342.502H805.032M990.841 366.98L979.096 342.502M990.841 366.98L1003.69 393.764M990.841 366.98H1081.79M979.096 342.502H1066.13M805.032 342.502H718M805.032 342.502L801.441 320.045M1066.13 342.502L1081.79 366.98M801.441 320.045H718M1003.69 393.764L1017.81 423.196M1003.69 393.764H1098.92M1081.79 366.98L1098.92 393.764M1098.92 393.764L1117.75 423.196M917.876 423.196L928.269 455.69M917.876 423.196H1017.81M917.876 423.196H817.938M1017.81 423.196L1033.4 455.69M1017.81 423.196H1117.75M1117.75 423.196L1138.54 455.69M1033.4 455.69H928.269M1033.4 455.69H1138.54M928.269 455.69H823.135M823.135 455.69H718M823.135 455.69L817.938 423.196M817.938 423.196H718M646.089 23.1479L645.928 23.6487L645.768 24.1515L645.606 24.6569L645.444 25.1649L645.116 26.1868L644.951 26.7013L644.786 27.2184M646.089 23.1479H682.044M646.089 23.1479H610.132M682.672 19.2195L683.279 15.4261M682.672 19.2195L682.044 23.1479M682.672 19.2195H718M683.279 15.4261L683.353 14.9612L683.428 14.4981L683.501 14.0371L683.865 11.7612M683.279 15.4261H718M649.731 11.7612L649.874 11.3112L650.443 9.53225L650.864 8.21758M649.731 11.7612H683.865M649.731 11.7612H615.596M682.044 23.1479L681.964 23.6487L681.884 24.1515L681.802 24.6569L681.393 27.2184M682.044 23.1479H718M718 19.2195V15.4261M718 19.2195V23.1479M718 15.4261V11.7612M683.865 11.7612H718M683.865 11.7612L684.08 10.4185L684.151 9.97439L684.432 8.21758M718 23.1479V27.2184M752.135 11.7612L751.92 10.4185L751.849 9.97439L751.778 9.53225L751.708 9.09207L751.638 8.65385L751.568 8.21758M752.135 11.7612H718M718 11.7612V8.21758M644.786 27.2184H681.393M644.786 27.2184H608.18M680.718 31.4389L680.632 31.9769L680.546 32.5182L680.018 35.8179M680.718 31.4389L681.393 27.2184M680.718 31.4389H718M681.393 27.2184H718M608.18 27.2184H571.573M608.18 27.2184L608.674 26.1868L608.92 25.6748L609.164 25.1649L609.409 24.6569L609.651 24.1515L609.893 23.6487L610.132 23.1479M718 27.2184V31.4389M610.132 23.1479H574.177M680.018 35.8179L679.291 40.3645M680.018 35.8179H718M718 31.4389V35.8179M718 35.8179V40.3645M640.581 40.3645L639.07 45.0891M640.581 40.3645H679.291M640.581 40.3645H601.872M679.291 40.3645L678.535 45.0891M679.291 40.3645H718M718 40.3645V45.0891M639.07 45.0891H678.535M639.07 45.0891H599.605M677.75 50.0016L678.535 45.0891M677.75 50.0016L676.932 55.1135M677.75 50.0016H718M678.535 45.0891H718M599.605 45.0891H560.14M599.605 45.0891L601.872 40.3645M718 45.0891V50.0016M601.872 40.3645H563.162M676.932 55.1135L676.617 57.0842L676.296 59.0856L676.08 60.4374M676.932 55.1135H718M718 50.0016V55.1135M718 55.1135V60.4374M634.161 60.4374L633.282 63.1829L633.06 63.8787L632.385 65.987M634.161 60.4374H676.08M634.161 60.4374H592.241M676.08 60.4374L675.862 61.803L675.418 64.5777L675.193 65.987M676.08 60.4374H718M718 60.4374V65.987M632.385 65.987H675.193M632.385 65.987H589.578M674.267 71.7765L674.384 71.039L675.193 65.987M674.267 71.7765L673.3 77.8217M674.267 71.7765H718M675.193 65.987H718M589.578 65.987H546.771M589.578 65.987L592.241 60.4374M718 65.987V71.7765M592.241 60.4374H550.321M673.3 77.8217L672.289 84.1407M673.3 77.8217H718M718 71.7765V77.8217M718 77.8217V84.1407M626.578 84.1407L624.464 90.7519M626.578 84.1407H672.289M626.578 84.1407H580.867M672.289 84.1407L671.232 90.7519M672.289 84.1407H718M718 84.1407V90.7519M624.464 90.7519H671.232M624.464 90.7519H577.696M670.125 97.6761L671.232 90.7519M670.125 97.6761L668.963 104.936M670.125 97.6761H718M671.232 90.7519H718M577.696 90.7519H530.927M577.696 90.7519L580.867 84.1407M718 90.7519V97.6761M580.867 84.1407H535.156M668.963 104.936L667.744 112.558M668.963 104.936H718M718 97.6761V104.936M718 104.936V112.558M617.488 112.558L614.927 120.567M617.488 112.558H667.744M617.488 112.558H567.233M667.744 112.558L666.464 120.567M667.744 112.558H718M718 112.558V120.567M614.927 120.567H666.464M614.927 120.567H563.39M665.115 128.996L666.464 120.567M665.115 128.996L663.695 137.877M665.115 128.996H718M666.464 120.567H718M563.39 120.567H511.853M563.39 120.567L567.233 112.558M718 120.567V128.996M567.233 112.558H516.977M663.695 137.877L662.196 147.249M663.695 137.877H718M718 128.996V137.877M718 137.877V147.249M606.392 147.249L603.224 157.152M606.392 147.249H662.196M606.392 147.249H550.588M662.196 147.249L660.612 157.152M662.196 147.249H718M718 147.249V157.152M603.224 157.152H660.612M603.224 157.152H545.836M658.936 167.635L660.612 157.152M658.936 167.635L657.158 178.748M658.936 167.635H718M660.612 157.152H718M545.836 157.152H488.448M545.836 157.152L550.588 147.249M718 157.152V167.635M550.588 147.249H494.783M657.158 178.748L655.27 190.551M657.158 178.748H718M718 167.635V178.748M718 178.748V190.551M592.541 190.551L588.524 203.11M592.541 190.551H655.27M592.541 190.551H529.811M655.27 190.551L653.262 203.11M655.27 190.551H718M718 190.551V203.11M588.524 203.11H653.262M588.524 203.11H523.785M651.12 216.499L653.262 203.11M651.12 216.499L648.833 230.805M651.12 216.499H718M653.262 203.11H718M523.785 203.11H459.047M523.785 203.11L529.811 190.551M718 203.11V216.499M529.811 190.551H467.081M648.833 230.805L646.382 246.124M648.833 230.805H718M718 216.499V230.805M718 230.805V246.124M574.765 246.124L569.505 262.568M574.765 246.124H646.382M574.765 246.124H503.147M646.382 246.124L643.752 262.568M646.382 246.124H718M718 246.124V262.568M569.505 262.568H643.752M569.505 262.568H495.257M640.922 280.266L643.752 262.568M640.922 280.266L637.867 299.367M640.922 280.266H718M643.752 262.568H718M495.257 262.568H421.009M495.257 262.568L503.147 246.124M718 262.568V280.266M503.147 246.124H431.529M637.867 299.367L634.559 320.045M637.867 299.367H718M718 280.266V299.367M718 299.367V320.045M551.119 320.045L543.936 342.502M551.119 320.045H634.559M551.119 320.045H467.679M634.559 320.045L630.968 342.502M634.559 320.045H718M718 320.045V342.502M543.936 342.502H630.968M543.936 342.502H456.904M627.053 366.98L630.968 342.502M627.053 366.98L622.77 393.764M627.053 366.98H718M630.968 342.502H718M456.904 342.502H369.871M456.904 342.502L467.679 320.045M718 342.502V366.98M467.679 320.045H384.239M622.77 393.764L618.062 423.196M622.77 393.764H718M718 366.98V393.764M718 393.764V423.196M518.124 423.196L507.731 455.69M518.124 423.196H618.062M518.124 423.196H418.186M618.062 423.196L612.865 455.69M618.062 423.196H718M718 423.196V455.69M612.865 455.69H507.731M612.865 455.69H718M507.731 455.69H402.596M402.596 455.69H297.461M402.596 455.69L418.186 423.196M418.186 423.196H318.248M502.265 23.1479L500.33 25.1649L498.359 27.2184M502.265 23.1479H538.221M502.265 23.1479H466.309M541.362 19.2195L544.396 15.4261M541.362 19.2195L538.221 23.1479M541.362 19.2195H576.69M544.396 15.4261H579.116M544.396 15.4261L546.603 12.6657L547.326 11.7612M513.192 11.7612H547.326M513.192 11.7612L514.481 10.4185L516.592 8.21758M513.192 11.7612H479.057M538.221 23.1479L534.966 27.2184M538.221 23.1479H574.177M576.69 19.2195L579.116 15.4261M576.69 19.2195L574.177 23.1479M579.116 15.4261L580.299 13.578L581.173 12.2125L581.461 11.7612M547.326 11.7612H581.461M547.326 11.7612L549.46 9.09207L550.16 8.21758M574.177 23.1479L572.232 26.1868L571.573 27.2184M615.596 11.7612L615.811 11.3112L616.24 10.4185L616.876 9.09207L617.296 8.21758M615.596 11.7612H581.461M581.461 11.7612L581.748 11.3112L582.32 10.4185L583.728 8.21758M498.359 27.2184H534.966M498.359 27.2184H461.752M531.59 31.4389L532.02 30.9029L532.446 30.3688L534.134 28.2585L534.966 27.2184M531.59 31.4389L528.976 34.7074L528.089 35.8179M531.59 31.4389H568.873M534.966 27.2184H571.573M461.752 27.2184H425.145M461.752 27.2184L465.185 24.1515L466.309 23.1479M571.573 27.2184L568.873 31.4389M466.309 23.1479H430.353M528.089 35.8179L527.642 36.3768L527.193 36.9383L525.833 38.6397L525.374 39.2116L524.453 40.3645M528.089 35.8179H566.071M568.873 31.4389L568.528 31.9769L566.071 35.8179M566.071 35.8179L565.714 36.3768L565.354 36.9383L564.993 37.503L563.162 40.3645M485.744 40.3645L481.21 45.0891M485.744 40.3645H524.453M485.744 40.3645H447.034M524.453 40.3645L520.675 45.0891M524.453 40.3645H563.162M563.162 40.3645L560.14 45.0891M481.21 45.0891H520.675M481.21 45.0891H441.745M516.747 50.0016L520.675 45.0891M516.747 50.0016L512.659 55.1135M516.747 50.0016H556.997M520.675 45.0891H560.14M441.745 45.0891H402.28M441.745 45.0891L447.034 40.3645M560.14 45.0891L556.997 50.0016M447.034 40.3645H408.324M512.659 55.1135L508.401 60.4374M512.659 55.1135H553.727M556.997 50.0016L556.192 51.2601L553.727 55.1135M553.727 55.1135L552.466 57.0842L551.185 59.0856L550.321 60.4374M466.481 60.4374L463.846 63.1829L461.156 65.987M466.481 60.4374H508.401M466.481 60.4374H424.561M508.401 60.4374L503.963 65.987M508.401 60.4374H550.321M550.321 60.4374L546.771 65.987M461.156 65.987H503.963M461.156 65.987H418.349M499.334 71.7765L503.963 65.987M499.334 71.7765L494.499 77.8217M499.334 71.7765H543.067M503.963 65.987H546.771M418.349 65.987H375.541M418.349 65.987L424.561 60.4374M546.771 65.987L543.067 71.7765M424.561 60.4374H382.642M494.499 77.8217L493.257 79.375L489.446 84.1407M494.499 77.8217H539.199M543.067 71.7765L539.199 77.8217M539.199 77.8217L538.704 78.5964L537.201 80.946L535.156 84.1407M443.735 84.1407L437.391 90.7519M443.735 84.1407H489.446M443.735 84.1407H398.025M489.446 84.1407L484.159 90.7519M489.446 84.1407H535.156M535.156 84.1407L530.927 90.7519M437.391 90.7519H484.159M437.391 90.7519H390.623M478.622 97.6761L482.113 93.3108L484.159 90.7519M478.622 97.6761L472.816 104.936M478.622 97.6761H526.497M484.159 90.7519H530.927M390.623 90.7519H343.855M390.623 90.7519L398.025 84.1407M530.927 90.7519L526.497 97.6761M398.025 84.1407H352.314M472.816 104.936L466.722 112.558M472.816 104.936H521.853M526.497 97.6761L521.853 104.936M521.853 104.936L516.977 112.558M416.466 112.558L408.779 120.567M416.466 112.558H466.722M416.466 112.558H366.211M466.722 112.558L460.317 120.567M466.722 112.558H516.977M516.977 112.558L511.853 120.567M408.779 120.567H460.317M408.779 120.567H357.243M453.576 128.996L460.317 120.567M453.576 128.996L446.474 137.877M453.576 128.996H506.461M460.317 120.567H511.853M357.243 120.567H305.707M357.243 120.567L366.211 112.558M511.853 120.567L506.461 128.996M366.211 112.558H315.955M446.474 137.877L438.98 147.249M446.474 137.877H500.779M506.461 128.996L500.779 137.877M500.779 137.877L494.783 147.249M383.176 147.249L373.672 157.152M383.176 147.249H438.98M383.176 147.249H327.371M438.98 147.249L431.06 157.152M438.98 147.249H494.783M494.783 147.249L488.448 157.152M373.672 157.152H431.06M373.672 157.152H316.284M422.677 167.635L431.06 157.152M422.677 167.635L413.79 178.748M422.677 167.635H481.742M431.06 157.152H488.448M316.284 157.152H258.896M316.284 157.152L327.371 147.249M488.448 157.152L481.742 167.635M327.371 147.249H271.568M413.79 178.748L404.352 190.551M413.79 178.748H474.632M481.742 167.635L474.632 178.748M474.632 178.748L467.081 190.551M341.622 190.551L329.571 203.11M341.622 190.551H404.352M341.622 190.551H278.892M404.352 190.551L394.309 203.11M404.352 190.551H467.081M467.081 190.551L459.047 203.11M329.571 203.11H394.309M329.571 203.11H264.833M383.602 216.499L394.309 203.11M383.602 216.499L372.161 230.805M383.602 216.499H450.482M394.309 203.11H459.047M264.833 203.11H200.095M264.833 203.11L278.892 190.551M459.047 203.11L450.482 216.499M278.892 190.551H216.163M372.161 230.805L359.912 246.124M372.161 230.805H441.33M450.482 216.499L441.33 230.805M441.33 230.805L431.529 246.124M288.294 246.124L272.514 262.568M288.294 246.124H359.912M288.294 246.124H216.676M359.912 246.124L346.761 262.568M359.912 246.124H431.529M431.529 246.124L421.009 262.568M272.514 262.568H346.761M272.514 262.568H198.266M332.608 280.266L346.761 262.568M332.608 280.266L317.334 299.367M332.608 280.266H409.687M346.761 262.568H421.009M198.266 262.568H124.018M198.266 262.568L216.676 246.124M421.009 262.568L409.687 280.266M216.676 246.124H145.058M317.334 299.367L300.798 320.045M317.334 299.367H397.467M409.687 280.266L397.467 299.367M397.467 299.367L384.239 320.045M217.358 320.045L195.807 342.502M217.358 320.045H300.798M217.358 320.045H133.918M300.798 320.045L282.839 342.502M300.798 320.045H384.239M384.239 320.045L369.871 342.502M195.807 342.502H282.839M195.807 342.502H108.775M263.265 366.98L282.839 342.502M263.265 366.98L241.846 393.764M263.265 366.98H354.212M282.839 342.502H369.871M108.775 342.502H21.7429M108.775 342.502L133.918 320.045M369.871 342.502L354.212 366.98M133.918 320.045H50.4776M241.846 393.764L218.31 423.196M241.846 393.764H337.077M354.212 366.98L337.077 393.764M337.077 393.764L318.248 423.196M118.372 423.196L87.1912 455.69M118.372 423.196H218.31M118.372 423.196H18.4337M218.31 423.196L192.326 455.69M218.31 423.196H318.248M318.248 423.196L297.461 455.69M192.326 455.69H87.1912M192.326 455.69H297.461M87.1912 455.69L1.20061 455.689M18.4337 423.196L1.20061 438.59M18.4337 423.196H1.20061M358.441 23.1479L351.931 27.2184M358.441 23.1479H394.397M358.441 23.1479H322.486M400.052 19.2195L405.512 15.4261M400.052 19.2195L394.397 23.1479M400.052 19.2195H435.379M405.512 15.4261H440.233M405.512 15.4261L410.788 11.7612M376.653 11.7612H410.788M376.653 11.7612L378.801 10.4185L382.321 8.21758M376.653 11.7612H342.518M394.397 23.1479L388.538 27.2184M394.397 23.1479H430.353M435.379 19.2195L440.233 15.4261M435.379 19.2195L430.353 23.1479M440.233 15.4261L443.765 12.6657L444.923 11.7612M410.788 11.7612L411.435 11.3112L415.888 8.21758M410.788 11.7612H444.923M430.353 23.1479L425.145 27.2184M479.057 11.7612L483.024 8.21758M479.057 11.7612H444.923M444.923 11.7612L446.641 10.4185L449.456 8.21758M351.931 27.2184H388.538M351.931 27.2184H315.325M382.463 31.4389L388.538 27.2184M382.463 31.4389L376.16 35.8179M382.463 31.4389H419.745M388.538 27.2184H425.145M315.325 27.2184H278.718M315.325 27.2184L322.486 23.1479M425.145 27.2184L419.745 31.4389M322.486 23.1479H286.53M376.16 35.8179L374.546 36.9383L369.615 40.3645M376.16 35.8179H414.142M419.745 31.4389L414.142 35.8179M414.142 35.8179L408.324 40.3645M330.905 40.3645L329.977 40.9455L323.35 45.0891M330.905 40.3645H369.615M330.905 40.3645H292.196M369.615 40.3645L362.815 45.0891M369.615 40.3645H408.324M408.324 40.3645L407.582 40.9455L402.28 45.0891M323.35 45.0891H362.815M323.35 45.0891H283.885M355.744 50.0016L362.815 45.0891M355.744 50.0016L348.385 55.1135M355.744 50.0016H395.994M362.815 45.0891H402.28M283.885 45.0891H244.42M283.885 45.0891L292.196 40.3645M402.28 45.0891L395.994 50.0016M292.196 40.3645H253.486M348.385 55.1135L340.722 60.4374M348.385 55.1135H389.454M395.994 50.0016L389.454 55.1135M389.454 55.1135L382.642 60.4374M298.802 60.4374L289.927 65.987M298.802 60.4374H340.722M298.802 60.4374H256.882M340.722 60.4374L332.734 65.987M340.722 60.4374H382.642M382.642 60.4374L375.541 65.987M289.927 65.987H332.734M289.927 65.987H247.119M324.4 71.7765L332.734 65.987M324.4 71.7765L315.698 77.8217M324.4 71.7765H368.133M332.734 65.987H375.541M247.119 65.987H204.312M247.119 65.987L256.882 60.4374M375.541 65.987L368.133 71.7765M256.882 60.4374H214.962M315.698 77.8217L306.603 84.1407M315.698 77.8217H360.398M368.133 71.7765L360.398 77.8217M360.398 77.8217L352.314 84.1407M260.892 84.1407L250.318 90.7519M260.892 84.1407H306.603M260.892 84.1407H215.181M306.603 84.1407L297.086 90.7519M306.603 84.1407H352.314M352.314 84.1407L343.855 90.7519M250.318 90.7519H297.086M250.318 90.7519H203.55M287.119 97.6761L297.086 90.7519M287.119 97.6761L276.669 104.936M287.119 97.6761H334.995M297.086 90.7519H343.855M203.55 90.7519H156.782M203.55 90.7519L215.181 84.1407M343.855 90.7519L334.995 97.6761M215.181 84.1407H169.47M276.669 104.936L265.699 112.558M276.669 104.936H325.705M334.995 97.6761L325.705 104.936M325.705 104.936L315.955 112.558M215.443 112.558L202.633 120.567M215.443 112.558H265.699M215.443 112.558H165.188M265.699 112.558L254.17 120.567M265.699 112.558H315.955M315.955 112.558L305.707 120.567M202.633 120.567H254.17M202.633 120.567H151.096M242.037 128.996L254.17 120.567M242.037 128.996L229.253 137.877M242.037 128.996H294.922M254.17 120.567H305.707M151.096 120.567H99.5597M151.096 120.567L165.188 112.558M305.707 120.567L294.922 128.996M165.188 112.558H114.932M229.253 137.877L215.763 147.249M229.253 137.877H283.558M294.922 128.996L283.558 137.877M283.558 137.877L271.568 147.249M159.959 147.249L144.12 157.152M159.959 147.249H215.763M159.959 147.249H104.155M215.763 147.249L201.508 157.152M215.763 147.249H271.568M271.568 147.249L258.896 157.152M144.12 157.152H201.508M144.12 157.152H86.732M186.419 167.635L201.508 157.152M186.419 167.635L170.423 178.748M186.419 167.635H245.484M201.508 157.152H258.896M86.732 157.152H29.3439M86.732 157.152L104.155 147.249M258.896 157.152L245.484 167.635M104.155 147.249H48.3511M170.423 178.748L153.433 190.551M170.423 178.748H231.265M245.484 167.635L231.265 178.748M231.265 178.748L216.163 190.551M90.7035 190.551L70.6181 203.11M90.7035 190.551H153.433M90.7035 190.551H27.9738M153.433 190.551L135.356 203.11M153.433 190.551H216.163M216.163 190.551L200.095 203.11M70.6181 203.11H135.356M70.6181 203.11H5.87996M116.083 216.499L135.356 203.11M116.083 216.499L95.4911 230.805M116.083 216.499H182.962M135.356 203.11H200.095M5.87996 203.11L27.9738 190.551M5.87996 203.11H1.20061M5.87996 203.11L1.20061 205.769M200.095 203.11L182.962 216.499M27.9738 190.551H1.20061M95.4911 230.805L73.4405 246.124M95.4911 230.805H164.659M182.962 216.499L164.659 230.805M164.659 230.805L145.058 246.124M1.82258 246.124H73.4405M1.82258 246.124H1.20061M1.82258 246.124L1.20061 246.512M73.4405 246.124L49.7697 262.568M73.4405 246.124H145.058M145.058 246.124L124.018 262.568M24.295 280.266L49.7697 262.568M24.295 280.266H101.373M24.295 280.266H1.20061M24.295 280.266L1.20061 296.31M49.7697 262.568H124.018M49.7697 262.568H1.20061M124.018 262.568L101.373 280.266M101.373 280.266L76.9342 299.367M76.9342 299.367L50.4776 320.045M76.9342 299.367H1.20061M50.4776 320.045L21.7429 342.502M50.4776 320.045H1.20061M21.7429 342.502H1.20061M21.7429 342.502L1.20061 358.558M214.618 23.1479L205.504 27.2184M214.618 23.1479H250.574M214.618 23.1479H178.662M258.741 19.2195L266.628 15.4261M258.741 19.2195L250.574 23.1479M258.741 19.2195H294.069M266.628 15.4261H301.349M266.628 15.4261L274.249 11.7612M240.114 11.7612H274.249M240.114 11.7612L248.048 8.21758M240.114 11.7612H205.98M250.574 23.1479L242.111 27.2184M250.574 23.1479H286.53M294.069 19.2195L301.349 15.4261M294.069 19.2195L286.53 23.1479M301.349 15.4261L308.384 11.7612M274.249 11.7612L275.183 11.3112L281.616 8.21758M274.249 11.7612H308.384M286.53 23.1479L278.718 27.2184M342.518 11.7612L348.752 8.21758M342.518 11.7612H308.384M308.384 11.7612L309.246 11.3112L315.184 8.21758M205.504 27.2184H242.111M205.504 27.2184H168.897M233.335 31.4389L242.111 27.2184M233.335 31.4389L224.23 35.8179M233.335 31.4389H270.618M242.111 27.2184H278.718M168.897 27.2184H132.291M168.897 27.2184L178.662 23.1479M278.718 27.2184L270.618 31.4389M178.662 23.1479H142.707M224.23 35.8179L214.777 40.3645M224.23 35.8179H262.213M270.618 31.4389L269.584 31.9769L262.213 35.8179M262.213 35.8179L253.486 40.3645M176.068 40.3645L165.49 45.0891M176.068 40.3645H214.777M176.068 40.3645H137.358M214.777 40.3645L204.955 45.0891M214.777 40.3645H253.486M253.486 40.3645L244.42 45.0891M165.49 45.0891H204.955M165.49 45.0891H126.025M194.741 50.0016L204.955 45.0891M194.741 50.0016L184.112 55.1135M194.741 50.0016H234.991M204.955 45.0891H244.42M126.025 45.0891H86.5595M126.025 45.0891L137.358 40.3645M244.42 45.0891L234.991 50.0016M137.358 40.3645H98.6487M184.112 55.1135L173.043 60.4374M184.112 55.1135H225.18M234.991 50.0016L225.18 55.1135M225.18 55.1135L214.962 60.4374M131.123 60.4374L118.697 65.987M131.123 60.4374H173.043M131.123 60.4374H89.2027M173.043 60.4374L161.505 65.987M173.043 60.4374H214.962M214.962 60.4374L204.312 65.987M118.697 65.987H161.505M118.697 65.987H75.8896M149.467 71.7765L161.505 65.987M149.467 71.7765L136.897 77.8217M149.467 71.7765H193.201M161.505 65.987H204.312M75.8896 65.987H33.0825M75.8896 65.987L89.2027 60.4374M204.312 65.987L193.201 71.7765M89.2027 60.4374H47.2833M136.897 77.8217L123.759 84.1407M136.897 77.8217H181.597M193.201 71.7765L181.597 77.8217M181.597 77.8217L169.47 84.1407M78.0482 84.1407L63.2456 90.7519M78.0482 84.1407H123.759M78.0482 84.1407H32.3381M123.759 84.1407L110.014 90.7519M123.759 84.1407H169.47M169.47 84.1407L156.782 90.7519M63.2456 90.7519H110.014M95.6165 97.6761L110.014 90.7519M95.6165 97.6761L80.5219 104.936M95.6165 97.6761H143.493M110.014 90.7519H156.782M156.782 90.7519L143.493 97.6761M32.3381 84.1407H1.20061M80.5219 104.936L64.6762 112.558M80.5219 104.936H129.558M143.493 97.6761L129.558 104.936M129.558 104.936L114.932 112.558M14.4203 112.558H64.6762M14.4203 112.558H1.20061M14.4203 112.558L1.20061 118.461M64.6762 112.558L48.0225 120.567M64.6762 112.558H114.932M114.932 112.558L99.5597 120.567M30.4983 128.996L48.0225 120.567M30.4983 128.996L12.0325 137.877M30.4983 128.996H83.3832M30.4983 128.996H1.20061M48.0225 120.567H99.5597M48.0225 120.567H1.20061M99.5597 120.567L83.3832 128.996M1.05501 118.526L1.20061 118.461M12.0325 137.877H66.3375M12.0325 137.877H1.20061M12.0325 137.877L1.20061 143.087M83.3832 128.996L66.3375 137.877M66.3375 137.877L48.3511 147.249M48.3511 147.249L29.3439 157.152M48.3511 147.249H1.20061M9.22577 167.635L29.3439 157.152M9.22577 167.635H1.20061M9.22577 167.635L1.20061 171.816M29.3439 157.152H1.20061M70.7951 23.1479L59.0769 27.2184M70.7951 23.1479H106.751M70.7951 23.1479H34.8387M117.431 19.2195L127.745 15.4261M117.431 19.2195L106.751 23.1479M117.431 19.2195H152.759M127.745 15.4261H162.466M127.745 15.4261L137.71 11.7612M103.575 11.7612H137.71M103.575 11.7612L113.776 8.21758M103.575 11.7612H69.4407M106.751 23.1479L95.6837 27.2184M106.751 23.1479H142.707M152.759 19.2195L162.466 15.4261M152.759 19.2195L142.707 23.1479M162.466 15.4261L171.844 11.7612M137.71 11.7612H171.844M137.71 11.7612L147.345 8.21758M142.707 23.1479L132.291 27.2184M205.98 11.7612L214.481 8.21758M205.98 11.7612H171.844M171.844 11.7612L180.913 8.21758M59.0769 27.2184H95.6837M59.0769 27.2184H22.4701M84.2082 31.4389L95.6837 27.2184M84.2082 31.4389L72.3019 35.8179M84.2082 31.4389H121.49M95.6837 27.2184H132.291M22.4701 27.2184L34.8387 23.1479M22.4701 27.2184H1.20061M132.291 27.2184L121.49 31.4389M34.8387 23.1479H1.20061M72.3019 35.8179L59.9393 40.3645M72.3019 35.8179H110.284M121.49 31.4389L110.284 35.8179M110.284 35.8179L98.6487 40.3645M21.2299 40.3645L7.6294 45.0891M21.2299 40.3645H59.9393M21.2299 40.3645H1.20061M59.9393 40.3645L47.0944 45.0891M59.9393 40.3645H98.6487M98.6487 40.3645L86.5595 45.0891M33.7381 50.0016L47.0944 45.0891M33.7381 50.0016L19.8389 55.1135M33.7381 50.0016H73.9886M33.7381 50.0016H1.20061M47.0944 45.0891H7.6294M47.0944 45.0891H86.5595M7.6294 45.0891L1.20061 47.322M7.6294 45.0891H1.20061M86.5595 45.0891L73.9886 50.0016M19.8389 55.1135L5.36327 60.4374M19.8389 55.1135H60.907M19.8389 55.1135H1.20061M73.9886 50.0016L60.907 55.1135M60.907 55.1135L47.2833 60.4374M5.36327 60.4374H47.2833M5.36327 60.4374L1.20061 61.9682M5.36327 60.4374H1.20061M47.2833 60.4374L33.0825 65.987M18.2671 71.7765L33.0825 65.987M18.2671 71.7765L2.79698 77.8217M18.2671 71.7765H1.20061M33.0825 65.987H1.20061M0.976604 65.987H1.20061M2.79698 77.8217H1.20061M2.79698 77.8217L1.20061 78.4455M0.814575 78.5964L1.20061 78.4455M11.4486 19.2195L23.5819 15.4261M11.4486 19.2195H1.20061M11.4486 19.2195L1.20061 22.4231M23.5819 15.4261L35.3061 11.7612M23.5819 15.4261H1.20061M69.4407 11.7612L80.2083 8.21758M69.4407 11.7612H35.3061M35.3061 11.7612L46.6405 8.21758M35.3061 11.7612H1.20061M1187.95 8.21758H1221.52M1187.95 8.21758H1154.38M1213.3 4.79002L1215.33 5.63648L1221.52 8.21758M1213.3 4.79002H1246.32M1221.52 8.21758H1255.09M1246.32 4.79002L1248.48 5.63648L1249.57 6.06167L1255.09 8.21758M1255.09 8.21758H1288.66M1288.66 8.21758H1322.22M1154.38 8.21758H1120.82M1322.22 8.21758H1355.79M1355.79 8.21758L1345.37 4.79002M1355.79 8.21758H1389.36M1345.37 4.79002H1378.39M1053.68 8.21758H1087.25M1053.68 8.21758H1020.11M1081.22 4.79002L1082.71 5.63648L1083.46 6.06167L1087.25 8.21758M1081.22 4.79002H1114.24M1087.25 8.21758H1120.82M1114.24 4.79002L1120.82 8.21758M1020.11 8.21758H986.544M919.408 8.21758H952.976M919.408 8.21758H885.84M949.138 4.79002L949.611 5.21195L950.085 5.63648L950.563 6.06167L952.976 8.21758M949.138 4.79002H982.158M952.976 8.21758H986.544M982.158 4.79002L986.544 8.21758M885.84 8.21758H852.271M785.136 8.21758H818.704M785.136 8.21758H751.568M817.059 4.79002L818.704 8.21758M817.059 4.79002H850.079M818.704 8.21758H852.271M850.079 4.79002L850.35 5.21195L850.621 5.63648L850.893 6.06167L852.271 8.21758M751.568 8.21758H718M650.864 8.21758H684.432M650.864 8.21758H617.296M684.98 4.79002L684.432 8.21758M684.98 4.79002H718M684.432 8.21758H718M718 4.79002V8.21758M617.296 8.21758H583.728M516.592 8.21758H550.16M516.592 8.21758H483.024M552.901 4.79002L552.225 5.63648L550.854 7.34961L550.16 8.21758M552.901 4.79002H585.921M550.16 8.21758H583.728M585.921 4.79002L585.65 5.21195L585.379 5.63648L585.107 6.06167L583.728 8.21758M483.024 8.21758H449.456M382.321 8.21758H415.888M382.321 8.21758H348.752M420.822 4.79002L419.604 5.63648L418.991 6.06167L415.888 8.21758M420.822 4.79002H453.842M415.888 8.21758H449.456M453.842 4.79002L453.302 5.21195L449.456 8.21758M348.752 8.21758H315.184M248.048 8.21758H281.616M248.048 8.21758H214.481M288.743 4.79002L286.983 5.63648L286.098 6.06167L281.616 8.21758M288.743 4.79002H321.763M281.616 8.21758H315.184M321.763 4.79002L320.952 5.21195L315.184 8.21758M214.481 8.21758H180.913M113.776 8.21758H147.345M113.776 8.21758H80.2083M156.664 4.79002L147.345 8.21758M156.664 4.79002H189.684M147.345 8.21758H180.913M189.684 4.79002L187.518 5.63648L186.428 6.06167L180.913 8.21758M80.2083 8.21758H46.6405M24.5854 4.79002L13.0726 8.21758M24.5854 4.79002H57.6053M24.5854 4.79002H1.20061M13.0726 8.21758H46.6405M13.0726 8.21758L1.20061 11.7525M13.0726 8.21758H1.20061M57.6053 4.79002L54.8978 5.63648L46.6405 8.21758M1378.39 4.79002L1381.1 5.63648L1389.36 8.21758M1389.36 8.21758H1422.93M1422.93 8.21758L1434.8 11.7525M1422.93 8.21758H1434.8M1434.8 171.816V167.635M1434.8 171.816V178.748M1434.8 167.635V157.152M1434.8 178.748V180.819V190.551M1434.8 190.551V203.11M1434.8 90.7519V84.1407M1434.8 90.7519V97.1196M1434.8 4.79002V8.21758M1434.8 8.21758V11.7525M1434.8 11.7525L1434.83 11.7612H1434.8M1434.8 11.7525V11.7612M1434.8 11.7612V15.4261M1434.8 15.4261V19.2195M1434.8 19.2195V22.4231M1434.8 22.4231V23.1479M1434.8 23.1479V27.2184M1434.8 27.2184V31.4389M1434.8 31.4389V34.217M1434.8 34.217V35.8179M1434.8 35.8179V40.3645M1434.8 40.3645V45.0891M1434.8 45.0891V47.322M1434.8 47.322V50.0016M1434.8 50.0016V55.1135M1434.8 55.1135V60.4374M1434.8 60.4374V61.9682M1434.8 61.9682V65.987M1434.8 65.987V71.7765M1434.8 71.7765V77.8217M1434.8 77.8217V78.4455M1434.8 78.4455V84.1407M1434.8 97.6761V104.936M1434.8 97.6761V97.1196M1434.8 104.936V112.558M1434.8 112.558V118.461M1434.8 118.461V120.567M1434.8 120.567V128.996M1434.8 128.996V137.877M1434.8 137.877V143.087M1434.8 143.087V147.249M1434.8 147.249V157.152M1434.8 203.11V205.769M1434.8 205.769V216.499M1434.8 216.499V230.805M1434.8 230.805V246.124M1434.8 246.124V246.512M1434.8 246.512V262.568M1434.8 262.568V280.266M1434.8 280.266V296.31M1434.8 296.31V299.367M1434.8 299.367V320.045M1434.8 320.045V342.502M1434.8 342.502V358.558M1434.8 358.558V366.98M1434.8 366.98V393.764M1434.8 393.764V423.196M1434.8 423.196V438.59M1434.8 438.59V455.689M1434.8 455.689V455.805H1.20061V455.689M1.20061 97.6761V104.936M1.20061 97.6761V97.1196M1.20061 97.1196V90.7519M1.20061 90.7519V84.1407M1.20061 84.1407V78.4455M1.20061 78.4455V77.8217M1.20061 77.8217V71.7765M1.20061 71.7765V65.987M1.20061 65.987V61.9682M1.20061 61.9682V60.4374M1.20061 60.4374V55.1135M1.20061 55.1135V50.0016M1.20061 50.0016V47.322M1.20061 47.322V45.0891M1.20061 45.0891V40.3645M1.20061 40.3645V35.8179M1.20061 35.8179V34.217M1.20061 34.217V31.4389M1.20061 31.4389V27.2184M1.20061 27.2184V23.1479M1.20061 23.1479V22.4231M1.20061 22.4231V19.2195M1.20061 19.2195V15.4261M1.20061 15.4261V11.7612M1.20061 11.7612H1.17148L1.20061 11.7525M1.20061 11.7612V11.7525M1.20061 11.7525V8.21758M1.20061 8.21758V4.79002M1.20061 455.689V438.59M1.20061 438.59V423.196M1.20061 423.196V393.765M1.20061 393.765V366.98M1.20061 366.98V358.558M1.20061 358.558V342.502M1.20061 342.502V320.045M1.20061 320.045V299.367M1.20061 299.367V296.31M1.20061 296.31V280.266M1.20061 280.266V262.568M1.20061 262.568V246.512M1.20061 246.512V246.124M1.20061 246.124V230.805M1.20061 230.805V216.499M1.20061 216.499V205.769M1.20061 205.769V203.11M1.20061 203.11V190.551M1.20061 190.551V178.748M1.20061 178.748V171.816M1.20061 171.816V167.635M1.20061 167.635V157.152M1.20061 157.152V147.249M1.20061 147.249V143.087M1.20061 143.087V137.877M1.20061 137.877V128.996M1.20061 128.996V120.567M1.20061 120.567V118.461M1.20061 118.461V112.558M1.20061 112.558V104.936" stroke="url(#paint0_radial_456_2787)" stroke-width="1.2" stroke-miterlimit="10" stroke-linecap="round" stroke-linejoin="round"/>
<defs>
<radialGradient id="paint0_radial_456_2787" cx="0" cy="0" r="1" gradientUnits="userSpaceOnUse" gradientTransform="translate(718 228.639) rotate(90.0001) scale(164.691 517.865)">
<stop offset="0.665789" stop-color="#3FA5DF" stop-opacity="0.24"/>
<stop offset="1" stop-color="#43A7E0" stop-opacity="0.01"/>
</radialGradient>
</defs>
</svg>
