<svg width="18" height="18" viewBox="0 0 18 18" fill="none" xmlns="http://www.w3.org/2000/svg">
<path d="M9.74992 0.750099C9.74992 0.551187 9.82893 0.360421 9.96959 0.219769C10.1102 0.0791167 10.301 9.90931e-05 10.4999 9.90931e-05C12.4884 0.00228279 14.3947 0.79316 15.8008 2.19921C17.2068 3.60526 17.9977 5.51165 17.9999 7.5001C17.9999 7.69901 17.9209 7.88978 17.7802 8.03043C17.6396 8.17108 17.4488 8.2501 17.2499 8.2501C17.051 8.2501 16.8602 8.17108 16.7196 8.03043C16.5789 7.88978 16.4999 7.69901 16.4999 7.5001C16.4981 5.90935 15.8654 4.38426 14.7406 3.25943C13.6157 2.1346 12.0907 1.50189 10.4999 1.5001C10.301 1.5001 10.1102 1.42108 9.96959 1.28043C9.82893 1.13978 9.74992 0.949012 9.74992 0.750099ZM10.4999 4.5001C11.2956 4.5001 12.0586 4.81617 12.6212 5.37878C13.1838 5.94139 13.4999 6.70445 13.4999 7.5001C13.4999 7.69901 13.5789 7.88978 13.7196 8.03043C13.8602 8.17108 14.051 8.2501 14.2499 8.2501C14.4488 8.2501 14.6396 8.17108 14.7802 8.03043C14.9209 7.88978 14.9999 7.69901 14.9999 7.5001C14.9987 6.30699 14.5242 5.16309 13.6806 4.31943C12.8369 3.47578 11.693 3.00129 10.4999 3.0001C10.301 3.0001 10.1102 3.07912 9.96959 3.21977C9.82893 3.36042 9.74992 3.55119 9.74992 3.7501C9.74992 3.94901 9.82893 4.13978 9.96959 4.28043C10.1102 4.42108 10.301 4.5001 10.4999 4.5001ZM17.3197 12.5543C17.7543 12.9902 17.9984 13.5806 17.9984 14.1961C17.9984 14.8116 17.7543 15.402 17.3197 15.8379L16.6372 16.6246C10.4947 22.5054 -4.45282 7.5616 1.33718 1.3996L2.19968 0.649599C2.636 0.227107 3.22112 -0.0066141 3.82845 -0.000999776C4.43578 0.00461455 5.01648 0.249113 5.44492 0.679599C5.46817 0.702849 6.85792 2.5081 6.85792 2.5081C7.27029 2.94132 7.49985 3.5168 7.49887 4.1149C7.49789 4.71301 7.26646 5.28773 6.85267 5.7196L5.98417 6.8116C6.46481 7.97943 7.17147 9.04078 8.06355 9.93467C8.95563 10.8286 10.0156 11.5374 11.1824 12.0204L12.2812 11.1466C12.7131 10.7331 13.2877 10.502 13.8856 10.5011C14.4836 10.5003 15.0588 10.7298 15.4919 11.1421C15.4919 11.1421 17.2964 12.5311 17.3197 12.5543ZM16.2877 13.6449C16.2877 13.6449 14.4929 12.2641 14.4697 12.2408C14.3151 12.0876 14.1064 12.0017 13.8888 12.0017C13.6712 12.0017 13.4624 12.0876 13.3079 12.2408C13.2877 12.2618 11.7749 13.4671 11.7749 13.4671C11.673 13.5482 11.5517 13.6014 11.4229 13.6214C11.2941 13.6414 11.1624 13.6275 11.0407 13.5811C9.52901 13.0183 8.15597 12.1372 7.01455 10.9974C5.87312 9.85767 4.98997 8.48592 4.42492 6.9751C4.37482 6.85169 4.35849 6.71717 4.3776 6.58535C4.39671 6.45354 4.45058 6.3292 4.53367 6.2251C4.53367 6.2251 5.73892 4.7116 5.75917 4.6921C5.91237 4.53759 5.99833 4.32881 5.99833 4.11122C5.99833 3.89364 5.91237 3.68486 5.75917 3.53035C5.73592 3.50785 4.35517 1.7116 4.35517 1.7116C4.19835 1.57098 3.99368 1.49567 3.78311 1.50111C3.57254 1.50655 3.37203 1.59232 3.22267 1.74085L2.36018 2.49085C-1.87132 7.57885 11.0819 19.8136 15.5407 15.6001L16.2239 14.8126C16.384 14.6643 16.4802 14.4595 16.4921 14.2416C16.504 14.0237 16.4307 13.8097 16.2877 13.6449Z" fill="#FBFBFB"/>
</svg>
